<svg width="152" height="104" viewBox="0 0 152 104" fill="none" xmlns="http://www.w3.org/2000/svg">
<g clip-path="url(#clip0_1158_58560)">
<path d="M34.9793 43.5487C34.5058 42.7013 33.9097 41.9285 33.2102 41.2554C32.4849 40.55 31.6776 39.934 30.8057 39.4207C30.1375 39.0374 29.4549 38.683 28.7622 38.3491C28.6407 35.9482 28.5108 33.5947 28.3862 31.4432C28.4346 31.485 28.4843 31.5251 28.5309 31.5692C28.866 31.8846 29.1231 32.2735 29.2822 32.7052C29.3852 33.0316 29.5682 33.3271 29.8144 33.5648C30.0606 33.8025 30.3622 33.975 30.692 34.0667C31.4124 34.3028 32.1896 34.3015 32.9092 34.0631C33.7674 33.7643 34.3655 33.2806 34.7034 32.6119C35.0407 31.9439 35.0498 31.1958 34.7306 30.3676C34.2344 28.9841 33.2692 27.8182 32.0027 27.0725C30.7804 26.328 29.4347 25.8084 28.0292 25.5385C27.8892 23.3155 27.7899 21.8421 27.7722 21.581C27.7579 21.3699 27.7021 21.1636 27.6081 20.974C27.5141 20.7845 27.3837 20.6153 27.2243 20.4761C27.0649 20.3369 26.8797 20.2305 26.6792 20.163C26.4786 20.0954 26.2668 20.068 26.0557 20.0823C26.0487 20.0828 26.042 20.0833 26.035 20.0839C25.6127 20.118 25.2207 20.3171 24.9441 20.6381C24.6674 20.9591 24.5284 21.3761 24.557 21.7989C24.629 22.8613 24.706 24.031 24.7856 25.2777C24.5483 25.2855 24.3103 25.299 24.0714 25.3182C23.9494 23.3955 23.8645 22.1361 23.8483 21.8965C23.8193 21.4701 23.6222 21.0727 23.3003 20.7917C22.9784 20.5106 22.558 20.369 22.1316 20.3979C22.1247 20.3983 22.118 20.3988 22.111 20.3994C21.6886 20.4335 21.2967 20.6326 21.0201 20.9536C20.7434 21.2746 20.6044 21.6917 20.633 22.1145C20.7113 23.2701 20.7955 24.5513 20.8826 25.9222C19.8874 26.2251 18.9388 26.6641 18.0638 27.2267C17.043 27.8838 16.1725 28.7492 15.5093 29.7661C14.9309 30.6524 14.5879 31.6715 14.5128 32.7271C14.451 33.7566 14.6625 34.7841 15.1259 35.7055C15.6532 36.7368 16.4193 37.6271 17.3603 38.3024C17.9707 38.7438 18.6115 39.1416 19.2778 39.4929C19.9598 39.8547 20.6599 40.1957 21.3782 40.516C21.4888 40.5654 21.6018 40.6134 21.713 40.6625C21.8794 44.1187 22.0157 47.4662 22.092 50.3424C21.854 50.2636 21.617 50.1777 21.3822 50.0765C20.6608 49.7642 20.0095 49.3101 19.4671 48.7412C19.1828 48.4357 18.9184 48.1122 18.6756 47.7728C18.4297 47.43 18.1778 47.0937 17.92 46.764C17.4553 46.1822 16.7907 45.7942 16.0556 45.6756C15.2978 45.5401 14.5165 45.6688 13.8421 46.0401C13.5348 46.1881 13.261 46.3974 13.0375 46.6551C12.814 46.9127 12.6455 47.2134 12.5424 47.5385C12.4432 47.8716 12.4192 48.2226 12.4724 48.5661C12.5255 48.9096 12.6543 49.237 12.8495 49.5246C13.462 50.5322 14.2125 51.4492 15.0792 52.2488C15.9536 53.0573 16.9422 53.7327 18.0133 54.2531C19.1323 54.7936 20.3163 55.1875 21.536 55.4251C21.7405 55.466 21.9469 55.501 22.1542 55.5333C22.1582 56.482 22.1129 57.4302 22.0184 58.3742C21.9916 58.5841 22.0064 58.7973 22.0619 59.0014C22.1175 59.2056 22.2127 59.3969 22.3421 59.5643C22.4715 59.7317 22.6327 59.8719 22.8163 59.977C23 60.0822 23.2025 60.1501 23.4124 60.1769C23.6223 60.2037 23.8355 60.189 24.0397 60.1334C24.2438 60.0779 24.4351 59.9827 24.6025 59.8532C24.7699 59.7238 24.9101 59.5627 25.0153 59.379C25.1204 59.1954 25.1883 58.9928 25.2151 58.7829C25.3196 57.7582 25.3709 56.7287 25.3688 55.6987C25.4114 55.6967 25.4536 55.696 25.4963 55.6937C25.6895 55.6821 25.8808 55.6628 26.0724 55.6447C26.0545 56.6845 26.0128 57.5087 25.9425 58.0587C25.9156 58.2686 25.9304 58.4817 25.9859 58.6859C26.0415 58.8901 26.1367 59.0813 26.2661 59.2487C26.3956 59.4161 26.5567 59.5564 26.7404 59.6615C26.924 59.7666 27.1266 59.8345 27.3365 59.8614C27.5464 59.8882 27.7595 59.8734 27.9637 59.8179C28.1679 59.7624 28.3591 59.6671 28.5265 59.5377C28.8646 59.2763 29.0849 58.8913 29.1391 58.4674C29.2528 57.3195 29.3052 56.1663 29.2962 55.0129C30.1685 54.7405 31.0039 54.3617 31.7834 53.8848C32.6867 53.33 33.4935 52.6319 34.1724 51.8178C34.8709 50.9725 35.3869 49.9917 35.6876 48.9372C35.9731 48.0358 36.0429 47.08 35.8912 46.1467C35.7369 45.2352 35.4286 44.3567 34.9793 43.5487V43.5487ZM24.463 30.2657C24.6742 30.2595 24.8839 30.2636 25.0928 30.2738C25.2174 32.38 25.3417 34.5854 25.458 36.7982C25.2132 36.6813 24.9684 36.5649 24.7228 36.4425C24.6069 34.2641 24.4875 32.1684 24.3755 30.2763C24.4044 30.2735 24.4343 30.268 24.463 30.2657ZM21.2655 34.3486C20.66 33.8452 20.3756 33.3563 20.4123 32.8818C20.4603 32.3837 20.7034 31.9248 21.0886 31.6052C21.1303 31.5673 21.1781 31.5333 21.2221 31.4968C21.2785 32.4633 21.3345 33.4472 21.3896 34.4405C21.3484 34.4092 21.3067 34.3804 21.2655 34.3486ZM25.3219 50.7591C25.2584 48.1227 25.1428 45.1256 25.0034 42.0838C25.2466 42.1956 25.4898 42.3074 25.7339 42.4253C25.8677 45.3958 25.9738 48.2265 26.0324 50.6762C25.8006 50.7146 25.5643 50.7433 25.3219 50.7591V50.7591ZM29.2085 49.0505C29.171 47.7682 29.123 46.4188 29.0678 45.0355C29.4927 45.5663 29.7655 46.2025 29.8572 46.8761C29.9033 47.2637 29.8695 47.6565 29.7579 48.0305C29.6463 48.4044 29.4594 48.7516 29.2085 49.0505V49.0505Z" fill="#35C465"/>
<path d="M87.0768 38.1886C86.6132 37.3589 86.0295 36.6023 85.3447 35.9433C84.6345 35.2526 83.8441 34.6495 82.9904 34.1469C82.3362 33.7716 81.668 33.4246 80.9897 33.0977C80.8707 30.7471 80.7435 28.4428 80.6216 26.3363C80.669 26.3772 80.7176 26.4165 80.7633 26.4597C81.0913 26.7685 81.3431 27.1492 81.4988 27.572C81.5997 27.8915 81.7788 28.1808 82.0199 28.4135C82.2609 28.6463 82.5563 28.8152 82.8791 28.9049C83.5845 29.1361 84.3454 29.1348 85.05 28.9014C85.8902 28.6089 86.4757 28.1352 86.8066 27.4805C87.1368 26.8266 87.1457 26.0941 86.8332 25.2832C86.3474 23.9287 85.4024 22.7871 84.1624 22.057C82.9657 21.3281 81.6481 20.8194 80.272 20.5551C80.1349 18.3786 80.0377 16.9361 80.0204 16.6804C80.0064 16.4737 79.9518 16.2718 79.8598 16.0862C79.7677 15.9006 79.6401 15.7349 79.484 15.5986C79.3279 15.4624 79.1466 15.3582 78.9502 15.2921C78.7539 15.2259 78.5465 15.1991 78.3398 15.2131C78.333 15.2135 78.3264 15.2141 78.3196 15.2146C77.906 15.248 77.5223 15.443 77.2515 15.7573C76.9806 16.0715 76.8445 16.4799 76.8725 16.8938C76.943 17.934 77.0183 19.0791 77.0963 20.2998C76.864 20.3074 76.6309 20.3207 76.3971 20.3395C76.2776 18.4569 76.1945 17.2239 76.1786 16.9893C76.1502 16.5719 75.9573 16.1828 75.6421 15.9076C75.3269 15.6325 74.9153 15.4938 74.4979 15.522C74.491 15.5225 74.4845 15.523 74.4777 15.5235C74.0641 15.557 73.6804 15.7519 73.4095 16.0662C73.1387 16.3805 73.0025 16.7888 73.0305 17.2027C73.1072 18.3342 73.1896 19.5886 73.2749 20.9308C72.3006 21.2274 71.3719 21.6571 70.5152 22.208C69.5157 22.8514 68.6634 23.6986 68.014 24.6943C67.4477 25.562 67.1119 26.5598 67.0384 27.5933C66.9778 28.6013 67.1849 29.6073 67.6386 30.5094C68.1549 31.5191 68.905 32.3909 69.8263 33.052C70.424 33.4842 71.0513 33.8736 71.7037 34.2176C72.3714 34.5718 73.0569 34.9057 73.7602 35.2192C73.8685 35.2677 73.9791 35.3147 74.0879 35.3627C74.2509 38.7466 74.3843 42.0241 74.459 44.8401C74.226 44.7629 73.994 44.6789 73.7641 44.5798C73.0578 44.274 72.4201 43.8294 71.889 43.2724C71.6107 42.9733 71.3518 42.6566 71.1142 42.3243C70.8733 41.9886 70.6267 41.6594 70.3743 41.3366C69.9193 40.7669 69.2686 40.3871 68.5489 40.2709C67.807 40.1383 67.042 40.2643 66.3818 40.6278C66.0809 40.7727 65.8128 40.9777 65.594 41.2299C65.3752 41.4822 65.2102 41.7766 65.1092 42.0949C65.0121 42.421 64.9886 42.7647 65.0406 43.101C65.0926 43.4373 65.2188 43.7578 65.4099 44.0394C66.0095 45.026 66.7444 45.9238 67.5929 46.7066C68.449 47.4982 69.417 48.1595 70.4657 48.6691C71.5613 49.1982 72.7205 49.5839 73.9147 49.8165C74.1149 49.8565 74.3169 49.8908 74.5199 49.9224C74.5239 50.8513 74.4795 51.7797 74.387 52.7039C74.3607 52.9095 74.3752 53.1181 74.4296 53.318C74.484 53.518 74.5772 53.7052 74.7039 53.8691C74.8306 54.033 74.9884 54.1703 75.1682 54.2732C75.348 54.3761 75.5463 54.4426 75.7519 54.4689C75.9574 54.4952 76.166 54.4807 76.3659 54.4263C76.5659 54.372 76.7531 54.2788 76.917 54.152C77.0809 54.0253 77.2182 53.8675 77.3211 53.6877C77.424 53.5079 77.4905 53.3096 77.5168 53.1041C77.6191 52.1008 77.6694 51.0928 77.6673 50.0844C77.709 50.0824 77.7503 50.0817 77.7921 50.0795C77.9813 50.0681 78.1686 50.0492 78.3561 50.0316C78.3386 51.0496 78.2978 51.8565 78.229 52.395C78.2026 52.6006 78.2169 52.8093 78.2712 53.0093C78.3255 53.2093 78.4187 53.3967 78.5455 53.5607C78.6722 53.7247 78.83 53.8621 79.0098 53.965C79.1897 54.068 79.3881 54.1345 79.5937 54.1608C79.7993 54.1871 80.008 54.1726 80.208 54.1182C80.408 54.0638 80.5953 53.9705 80.7592 53.8437C80.9231 53.7169 81.0604 53.559 81.1633 53.3791C81.2662 53.1991 81.3326 53.0007 81.3587 52.7951C81.47 51.6712 81.5213 50.5422 81.5125 49.4129C82.3666 49.1463 83.1845 48.7753 83.9477 48.3085C84.8321 47.7653 85.622 47.0817 86.2867 46.2847C86.9706 45.4571 87.4758 44.4968 87.7702 43.4643C88.0498 42.5818 88.118 41.6459 87.9696 40.7322C87.8185 39.8398 87.5166 38.9796 87.0768 38.1886ZM76.7804 25.1834C76.9872 25.1773 77.1926 25.1813 77.3971 25.1914C77.5191 27.2535 77.6408 29.4127 77.7547 31.5792C77.5149 31.4648 77.2752 31.3508 77.0348 31.2311C76.9213 29.0982 76.8045 27.0464 76.6948 25.1938C76.723 25.1911 76.7523 25.1857 76.7804 25.1834V25.1834ZM73.6499 29.1809C73.057 28.6881 72.7786 28.2094 72.8145 27.7448C72.8615 27.2571 73.0996 26.8078 73.4766 26.4949C73.5175 26.4578 73.5643 26.4245 73.6074 26.3888C73.6625 27.3351 73.7174 28.2983 73.7713 29.2709C73.731 29.2403 73.6901 29.2121 73.6499 29.181V29.1809ZM77.6214 45.2481C77.5592 42.6669 77.4461 39.7325 77.3096 36.7544C77.5477 36.8638 77.7858 36.9733 78.0248 37.0886C78.1557 39.997 78.2596 42.7685 78.317 45.167C78.0901 45.2045 77.8587 45.2326 77.6214 45.2481ZM81.4267 43.5753C81.3899 42.3198 81.343 40.9987 81.2889 39.6443C81.7049 40.164 81.9721 40.7868 82.0619 41.4464C82.1069 41.8258 82.0738 42.2104 81.9646 42.5766C81.8554 42.9427 81.6723 43.2826 81.4267 43.5753H81.4267Z" fill="#35C465"/>
<path d="M36.4383 42.725C35.9648 41.8776 35.3686 41.1048 34.6692 40.4317C33.9438 39.7262 33.1366 39.1103 32.2646 38.597C31.5965 38.2136 30.9139 37.8592 30.2212 37.5254C30.0997 35.1245 29.9697 32.771 29.8452 30.6195C29.8936 30.6613 29.9432 30.7014 29.9899 30.7454C30.3249 31.0608 30.5821 31.4498 30.7411 31.8815C30.8442 32.2079 31.0271 32.5033 31.2733 32.7411C31.5195 32.9788 31.8212 33.1513 32.1509 33.2429C32.8714 33.479 33.6485 33.4778 34.3682 33.2394C35.2264 32.9406 35.8244 32.4568 36.1623 31.7881C36.4996 31.1202 36.5087 30.3721 36.1895 29.5438C35.6934 28.1604 34.7282 26.9944 33.4617 26.2487C32.2394 25.5042 30.8937 24.9847 29.4882 24.7147C29.3481 22.4917 29.2488 21.0184 29.2311 20.7572C29.2168 20.5461 29.1611 20.3399 29.0671 20.1503C28.9731 19.9607 28.8427 19.7915 28.6833 19.6524C28.5239 19.5132 28.3387 19.4068 28.1381 19.3392C27.9376 19.2717 27.7257 19.2443 27.5146 19.2586C27.5077 19.259 27.501 19.2596 27.494 19.2601C27.0716 19.2942 26.6797 19.4934 26.4031 19.8144C26.1264 20.1354 25.9873 20.5524 26.016 20.9752C26.088 22.0376 26.165 23.2072 26.2446 24.454C26.0073 24.4618 25.7692 24.4753 25.5304 24.4945C25.4084 22.5717 25.3235 21.3123 25.3072 21.0728C25.2783 20.6464 25.0812 20.249 24.7593 19.968C24.4374 19.6869 24.017 19.5452 23.5906 19.5741C23.5837 19.5746 23.5769 19.5751 23.57 19.5757C23.1476 19.6098 22.7557 19.8089 22.479 20.1299C22.2024 20.4509 22.0633 20.868 22.092 21.2908C22.1703 22.4464 22.2545 23.7276 22.3416 25.0985C21.3464 25.4014 20.3978 25.8403 19.5228 26.4029C18.502 27.0601 17.6314 27.9254 16.9683 28.9424C16.3898 29.8286 16.0469 30.8477 15.9718 31.9034C15.9099 32.9329 16.1214 33.9604 16.5848 34.8818C17.1122 35.9131 17.8782 36.8034 18.8193 37.4787C19.4297 37.9201 20.0704 38.3179 20.7368 38.6691C21.4187 39.031 22.1189 39.372 22.8372 39.6922C22.9478 39.7417 23.0607 39.7897 23.1719 39.8388C23.3383 43.2949 23.4746 46.6425 23.551 49.5187C23.313 49.4398 23.076 49.354 22.8412 49.2528C22.1198 48.9404 21.4685 48.4863 20.926 47.9174C20.6417 47.612 20.3774 47.2885 20.1346 46.9491C19.8886 46.6063 19.6368 46.27 19.379 45.9402C18.9143 45.3584 18.2497 44.9705 17.5146 44.8518C16.7568 44.7164 15.9755 44.845 15.3011 45.2163C14.9938 45.3644 14.72 45.5737 14.4965 45.8313C14.273 46.089 14.1045 46.3896 14.0014 46.7148C13.9022 47.0479 13.8782 47.3989 13.9313 47.7424C13.9844 48.0859 14.1133 48.4133 14.3085 48.7008C14.921 49.7085 15.6715 50.6255 16.5382 51.4251C17.4126 52.2336 18.4012 52.9089 19.4723 53.4294C20.5913 53.9699 21.7753 54.3638 22.995 54.6014C23.1995 54.6422 23.4059 54.6772 23.6131 54.7095C23.6172 55.6582 23.5719 56.6065 23.4774 57.5505C23.4232 57.9744 23.5396 58.4025 23.8011 58.7406C24.0625 59.0786 24.4475 59.299 24.8714 59.3532C25.2953 59.4074 25.7234 59.291 26.0615 59.0295C26.3995 58.7681 26.6199 58.3831 26.6741 57.9592C26.7786 56.9345 26.8299 55.905 26.8278 54.8749C26.8704 54.873 26.9126 54.8723 26.9553 54.87C27.1485 54.8584 27.3398 54.8391 27.5313 54.821C27.5135 55.8608 27.4718 56.6849 27.4014 57.235C27.3746 57.4449 27.3894 57.658 27.4449 57.8622C27.5004 58.0664 27.5957 58.2576 27.7251 58.425C27.8545 58.5924 28.0157 58.7327 28.1993 58.8378C28.383 58.9429 28.5855 59.0108 28.7954 59.0376C29.0053 59.0645 29.2185 59.0497 29.4226 58.9942C29.6268 58.9386 29.8181 58.8434 29.9855 58.714C30.1529 58.5845 30.2931 58.4234 30.3982 58.2397C30.5034 58.0561 30.5713 57.8535 30.5981 57.6436C30.7117 56.4958 30.7642 55.3426 30.7552 54.1892C31.6275 53.9168 32.4629 53.5379 33.2424 53.0611C34.1456 52.5063 34.9525 51.8082 35.6313 50.994C36.3299 50.1488 36.8458 49.168 37.1465 48.1134C37.4321 47.2121 37.5018 46.2562 37.3502 45.323C37.1959 44.4115 36.8875 43.533 36.4383 42.725V42.725ZM25.9219 29.442C26.1332 29.4357 26.3429 29.4398 26.5518 29.4501C26.6764 31.5563 26.8007 33.7617 26.917 35.9745C26.6721 35.8576 26.4273 35.7411 26.1818 35.6188C26.0659 33.4404 25.9465 31.3447 25.8345 29.4526C25.8633 29.4498 25.8932 29.4443 25.9219 29.442V29.442ZM22.7245 33.5249C22.119 33.0215 21.8346 32.5326 21.8712 32.0581C21.9193 31.5599 22.1624 31.1011 22.5475 30.7815C22.5893 30.7436 22.6371 30.7096 22.6811 30.6731C22.7374 31.6396 22.7935 32.6234 22.8485 33.6168C22.8073 33.5855 22.7656 33.5567 22.7245 33.5249V33.5249ZM26.7809 49.9354C26.7173 47.299 26.6018 44.3019 26.4624 41.2601C26.7056 41.3719 26.9488 41.4837 27.1928 41.6015C27.3266 44.572 27.4327 47.4028 27.4914 49.8525C27.2596 49.8909 27.0233 49.9195 26.7809 49.9354V49.9354ZM30.6675 48.2268C30.6299 46.9445 30.582 45.5951 30.5268 44.2118C30.9517 44.7426 31.2245 45.3787 31.3162 46.0524C31.3622 46.4399 31.3284 46.8328 31.2169 47.2067C31.1053 47.5807 30.9183 47.9278 30.6675 48.2268V48.2268Z" fill="#5FED73"/>
<path d="M25.0774 59.9332C24.7678 59.9334 24.4618 59.8676 24.1797 59.7402C23.8976 59.6128 23.6458 59.4268 23.4412 59.1945C23.2367 58.9622 23.0839 58.689 22.9932 58.3931C22.9025 58.0971 22.8758 57.7852 22.9151 57.4782C22.979 56.9784 23.0207 56.2092 23.0394 55.1873C22.9874 55.1775 22.9356 55.1675 22.8838 55.1571C21.6167 54.9093 20.3867 54.4999 19.2239 53.9389C18.1034 53.3933 17.0689 52.6865 16.1533 51.841C15.2485 51.0052 14.4645 50.0474 13.8241 48.9952C13.5862 48.639 13.4302 48.2345 13.3673 47.8109C13.3045 47.3872 13.3363 46.9549 13.4604 46.545C13.5854 46.1487 13.7898 45.782 14.061 45.4672C14.3322 45.1523 14.6647 44.896 15.0381 44.7138C15.8235 44.2845 16.7319 44.1361 17.6131 44.2931C18.4826 44.4353 19.2686 44.8947 19.8194 45.5824C20.0919 45.9313 20.3506 46.2766 20.5956 46.6183C20.8245 46.938 21.0735 47.2427 21.3412 47.5306C21.8038 48.0134 22.3531 48.405 22.9604 48.6848C22.889 46.2714 22.7755 43.4291 22.6226 40.217L22.6061 40.2097C21.8746 39.8832 21.1561 39.5334 20.4711 39.1699C19.7816 38.806 19.1184 38.3941 18.4865 37.9375C17.4713 37.2066 16.6448 36.2443 16.0756 35.1304C15.5698 34.1205 15.3389 32.9953 15.406 31.8678C15.488 30.7176 15.8605 29.6069 16.4887 28.6399C17.1949 27.5564 18.1212 26.6336 19.2074 25.9316C20.0014 25.4193 20.8545 25.0048 21.748 24.6971C21.6709 23.4913 21.5963 22.3601 21.5264 21.3289C21.4898 20.7577 21.6785 20.195 22.0522 19.7615C22.4258 19.328 22.9545 19.0582 23.5248 19.0102C23.5279 19.0098 23.5518 19.0081 23.555 19.0078C23.9617 18.981 24.3677 19.0686 24.727 19.2608C25.0863 19.453 25.3846 19.7421 25.5879 20.0953C25.7347 19.7102 25.9872 19.3744 26.3164 19.1265C26.6456 18.8787 27.0382 18.729 27.4488 18.6945C27.4517 18.6943 27.4753 18.6925 27.4783 18.6924C28.0545 18.6538 28.6224 18.8455 29.0573 19.2255C29.4921 19.6054 29.7583 20.1425 29.7973 20.7187C29.8137 20.9628 29.9017 22.2661 30.0273 24.2506C31.3449 24.5504 32.6052 25.062 33.759 25.7653C35.1344 26.5795 36.1828 27.8479 36.7234 29.352C36.9096 29.7778 37.0012 30.2391 36.9917 30.7038C36.9823 31.1685 36.8721 31.6256 36.6687 32.0435C36.2637 32.8449 35.5526 33.4273 34.555 33.7747C33.7178 34.0528 32.8135 34.0552 31.9748 33.7817C31.3909 33.6094 30.883 33.2438 30.5344 32.7448C30.6197 34.2726 30.699 35.751 30.771 37.162C31.4044 37.4742 31.9881 37.7842 32.5473 38.1048C33.4599 38.6423 34.3051 39.287 35.0648 40.025C35.8038 40.7374 36.434 41.5547 36.935 42.4506V42.4508C37.4145 43.315 37.744 44.2543 37.9095 45.2286C38.0752 46.2484 37.9998 47.2927 37.6893 48.2781C37.3657 49.4051 36.8134 50.4534 36.0668 51.3576C35.3481 52.218 34.4948 52.9562 33.54 53.5437C32.8388 53.9728 32.0942 54.3264 31.3186 54.5987C31.3211 55.6396 31.2685 56.6799 31.1609 57.7152C31.1033 58.1677 30.905 58.5906 30.5941 58.9244C30.2832 59.2581 29.8753 59.4858 29.4281 59.5753C28.9808 59.6648 28.5168 59.6116 28.1014 59.4233C27.686 59.2349 27.3402 58.9208 27.1129 58.5254C26.966 58.9103 26.7135 59.2459 26.3843 59.4937C26.0552 59.7415 25.6628 59.8914 25.2523 59.9261C25.1942 59.9308 25.1358 59.9331 25.0774 59.9332ZM16.9158 45.3653C16.444 45.3686 15.9804 45.4895 15.567 45.7171C15.3253 45.8308 15.1096 45.9931 14.9334 46.1939C14.7571 46.3947 14.6242 46.6297 14.5429 46.8841C14.4685 47.1404 14.4523 47.4101 14.4957 47.6734C14.539 47.9367 14.6407 48.187 14.7933 48.4059C15.379 49.3681 16.096 50.2441 16.9235 51.0085C17.7577 51.7787 18.7003 52.4226 19.7213 52.9194C20.7969 53.4379 21.9345 53.8162 23.1063 54.045C23.3032 54.0845 23.5016 54.1177 23.7009 54.1489C23.8355 54.1699 23.9581 54.2387 24.0462 54.3427C24.1343 54.4467 24.182 54.5789 24.1805 54.7152C24.1853 55.686 24.1385 56.6563 24.0403 57.6222C24.0051 57.8968 24.0806 58.1742 24.2499 58.3933C24.4193 58.6123 24.6687 58.7552 24.9434 58.7903C25.0794 58.8078 25.2176 58.7983 25.35 58.7624C25.4824 58.7264 25.6063 58.6648 25.7149 58.5808C25.8234 58.4969 25.9143 58.3925 25.9824 58.2734C26.0505 58.1543 26.0945 58.023 26.1118 57.8869C26.2136 56.8838 26.2634 55.8761 26.2608 54.8678C26.2626 54.7232 26.3196 54.5847 26.4201 54.4807C26.5206 54.3767 26.657 54.315 26.8015 54.3082L26.9262 54.3034C27.0792 54.2941 27.2358 54.2792 27.3924 54.2644L27.4786 54.2562C27.558 54.2487 27.6381 54.2581 27.7137 54.2837C27.7892 54.3093 27.8585 54.3506 27.917 54.4048C27.9755 54.459 28.0219 54.525 28.0532 54.5983C28.0845 54.6717 28.1 54.7509 28.0986 54.8306C28.096 55.6577 28.0511 56.4842 27.9642 57.3067C27.9295 57.5813 28.0051 57.8585 28.1744 58.0775C28.3437 58.2965 28.593 58.4394 28.8675 58.4748C28.9397 58.4838 29.0125 58.4855 29.085 58.4799C29.3234 58.4598 29.5477 58.3587 29.7207 58.1934C29.8937 58.0281 30.0049 57.8086 30.0359 57.5714C30.1467 56.446 30.1976 55.3154 30.1883 54.1846C30.1892 54.0647 30.2281 53.9482 30.2993 53.8518C30.3706 53.7554 30.4705 53.6841 30.5849 53.648C31.4126 53.3891 32.2055 53.0296 32.9458 52.5776C33.7962 52.0541 34.5563 51.3964 35.1966 50.6301C35.8443 49.8437 36.3231 48.9322 36.6029 47.9526C36.8627 47.1337 36.9271 46.2654 36.7912 45.4171C36.6468 44.5688 36.3597 43.7512 35.942 42.9988C35.4949 42.2006 34.9327 41.4724 34.2737 40.8378C33.5804 40.1644 32.8093 39.576 31.9768 39.0852C31.3594 38.731 30.7027 38.3867 29.9752 38.0359C29.8835 37.9917 29.8054 37.9235 29.7491 37.8387C29.6928 37.7539 29.6604 37.6554 29.6552 37.5537C29.5458 35.3951 29.4193 33.0731 29.2793 30.652C29.2728 30.5409 29.2992 30.4303 29.3552 30.334C29.4112 30.2378 29.4943 30.1602 29.5942 30.1108C29.694 30.0615 29.8061 30.0427 29.9166 30.0566C30.0271 30.0706 30.131 30.1168 30.2154 30.1895L30.2528 30.2213C30.296 30.2578 30.339 30.2945 30.3802 30.3336C30.778 30.7086 31.0835 31.1707 31.2727 31.6836C31.2756 31.6908 31.278 31.6982 31.2805 31.7055C31.3557 31.9472 31.4914 32.1657 31.6746 32.3403C31.8577 32.515 32.0825 32.64 32.3275 32.7037C32.9353 32.9037 33.5915 32.9018 34.1981 32.6981C34.5063 32.6102 34.794 32.4618 35.0443 32.2616C35.2947 32.0614 35.5027 31.8134 35.6562 31.5321C35.9205 31.009 35.9219 30.4253 35.6604 29.7476C35.2112 28.4789 34.327 27.4104 33.1649 26.7316C31.9994 26.0234 30.7169 25.5287 29.3777 25.2707C29.255 25.2463 29.1439 25.182 29.0615 25.0878C28.9791 24.9937 28.9302 24.8749 28.9224 24.7501C28.7825 22.5287 28.6833 21.0563 28.6656 20.7954C28.6563 20.6586 28.6202 20.5249 28.5593 20.4021C28.4984 20.2792 28.4138 20.1696 28.3105 20.0794C28.2072 19.9892 28.0872 19.9203 27.9573 19.8765C27.8273 19.8327 27.69 19.8149 27.5532 19.8242C27.4164 19.8335 27.2828 19.8696 27.1599 19.9305C27.0371 19.9915 26.9274 20.076 26.8373 20.1793C26.7471 20.2826 26.6781 20.4026 26.6343 20.5326C26.5905 20.6625 26.5728 20.7998 26.5821 20.9366C26.6542 21.9996 26.7312 23.17 26.8109 24.4176C26.8157 24.4934 26.8053 24.5694 26.7802 24.6411C26.7551 24.7128 26.7159 24.7787 26.6648 24.835C26.6137 24.8912 26.5519 24.9366 26.4829 24.9685C26.414 25.0003 26.3393 25.018 26.2634 25.0205C26.034 25.028 25.8029 25.0411 25.5765 25.0595C25.5014 25.0656 25.4259 25.0567 25.3543 25.0332C25.2827 25.0098 25.2165 24.9724 25.1596 24.9231C25.1026 24.8738 25.056 24.8137 25.0226 24.7462C24.9891 24.6788 24.9694 24.6053 24.9646 24.5301C24.8427 22.6087 24.7579 21.3504 24.7417 21.1109C24.7325 20.974 24.6965 20.8402 24.6356 20.7173C24.5748 20.5943 24.4903 20.4845 24.3869 20.3942C24.2836 20.3039 24.1635 20.2348 24.0335 20.1909C23.9034 20.1471 23.766 20.1293 23.6291 20.1386C23.4922 20.1479 23.3585 20.184 23.2356 20.245C23.1126 20.306 23.0029 20.3907 22.9128 20.4941C22.8226 20.5975 22.7536 20.7177 22.7099 20.8478C22.6662 20.9779 22.6486 21.1153 22.658 21.2522C22.7364 22.4085 22.8206 23.6905 22.9078 25.0622C22.9158 25.1891 22.881 25.315 22.809 25.4198C22.7369 25.5245 22.6317 25.602 22.5103 25.6398C21.5651 25.9278 20.664 26.3444 19.8323 26.8781C18.8809 27.4912 18.0688 28.2973 17.4485 29.2442C16.9221 30.0508 16.6088 30.9777 16.538 31.9383C16.4838 32.8695 16.6758 33.7986 17.0945 34.6321C17.5837 35.5822 18.2918 36.4024 19.1603 37.025C19.7469 37.4483 20.3624 37.8301 21.0022 38.1676C21.6652 38.5193 22.3602 38.8579 23.0686 39.174L23.4007 39.3194C23.4972 39.3618 23.5799 39.4304 23.6396 39.5172C23.6993 39.6041 23.7336 39.7059 23.7386 39.8112C23.9193 43.5635 24.047 46.8245 24.1181 49.5033C24.1205 49.5943 24.101 49.6846 24.0612 49.7664C24.0213 49.8483 23.9624 49.9194 23.8893 49.9736C23.8162 50.0279 23.7311 50.0638 23.6412 50.0783C23.5514 50.0927 23.4593 50.0853 23.3729 50.0567C23.0818 49.9604 22.8415 49.8702 22.6168 49.7734C21.8267 49.4306 21.113 48.9333 20.5179 48.3108C20.2147 47.9853 19.9327 47.6406 19.6737 47.2789C19.4381 46.9504 19.1884 46.6172 18.9321 46.2889C18.5543 45.8168 18.0134 45.5033 17.4159 45.41C17.2508 45.3806 17.0835 45.3657 16.9158 45.3653V45.3653ZM26.7811 50.5023C26.6331 50.5023 26.4909 50.4444 26.3849 50.341C26.279 50.2376 26.2177 50.0969 26.2141 49.9489C26.1563 47.5425 26.0493 44.628 25.8961 41.2857C25.8917 41.1885 25.9123 41.0918 25.9561 41.0049C25.9998 40.918 26.0652 40.8438 26.1459 40.7895C26.2266 40.7351 26.3199 40.7024 26.4169 40.6946C26.5139 40.6867 26.6113 40.7039 26.6997 40.7445L26.7321 40.7596C26.9678 40.8679 27.2034 40.9762 27.4397 41.0906C27.5318 41.1351 27.6102 41.2037 27.6665 41.2891C27.7228 41.3745 27.755 41.4735 27.7596 41.5757C27.903 44.7572 28.0035 47.5372 28.0586 49.8388C28.0618 49.9754 28.0156 50.1087 27.9284 50.214C27.8412 50.3193 27.7189 50.3896 27.5841 50.4119C27.3217 50.4553 27.0711 50.4843 26.8183 50.5009C26.8059 50.5018 26.7935 50.5023 26.7811 50.5023V50.5023ZM30.6677 48.7936C30.5202 48.7936 30.3785 48.7361 30.2726 48.6333C30.1668 48.5305 30.1051 48.3905 30.1008 48.243C30.0656 47.0377 30.0184 45.689 29.9604 44.2341C29.9555 44.1128 29.9897 43.993 30.058 43.8925C30.1264 43.7921 30.2251 43.7162 30.3398 43.6761C30.4545 43.636 30.579 43.6338 30.695 43.6698C30.8111 43.7058 30.9125 43.7782 30.9843 43.8761C31.47 44.4897 31.78 45.2237 31.8811 45.9998C31.9343 46.4615 31.8929 46.9293 31.7592 47.3745C31.6256 47.8197 31.4025 48.233 31.1037 48.5891C31.0505 48.6531 30.9839 48.7046 30.9085 48.7399C30.8332 48.7753 30.7509 48.7936 30.6677 48.7936V48.7936ZM26.9172 36.5413C26.8327 36.5414 26.7493 36.5225 26.673 36.4861L26.6371 36.4689C26.4013 36.3565 26.1656 36.2439 25.9292 36.1262C25.8394 36.0814 25.763 36.0137 25.708 35.9298C25.6529 35.8459 25.6211 35.7489 25.6157 35.6487C25.5114 33.6887 25.3946 31.6153 25.2686 29.4859C25.2599 29.3397 25.3082 29.1958 25.4032 29.0843C25.4982 28.9729 25.6327 28.9025 25.7784 28.888C25.8237 28.8819 25.8503 28.8785 25.8764 28.8764C25.8861 28.8757 25.8959 28.8751 25.9056 28.8748C26.1159 28.8686 26.3367 28.8715 26.58 28.8834C26.7196 28.8903 26.8517 28.9485 26.9511 29.0469C27.0504 29.1453 27.1099 29.2769 27.1182 29.4164C27.2507 31.6554 27.3736 33.8517 27.4836 35.9444C27.4876 36.0213 27.476 36.0982 27.4494 36.1704C27.4227 36.2427 27.3817 36.3087 27.3287 36.3646C27.2757 36.4204 27.2119 36.4649 27.1411 36.4953C27.0704 36.5257 26.9942 36.5413 26.9172 36.5413V36.5413ZM22.8489 34.1837C22.7251 34.1837 22.6047 34.1433 22.5061 34.0685L22.4592 34.0338C22.4319 34.014 22.4048 33.994 22.3778 33.9732C22.3726 33.9691 22.3674 33.965 22.3623 33.9607C21.6103 33.3356 21.2548 32.6808 21.306 32.0144C21.3641 31.3715 21.6733 30.7775 22.1667 30.3612C22.2025 30.3287 22.2411 30.2979 22.28 30.2675L22.3194 30.2362C22.4001 30.1693 22.4978 30.1261 22.6016 30.1114C22.7055 30.0967 22.8113 30.111 22.9075 30.1528C23.0036 30.1946 23.0863 30.2623 23.1463 30.3483C23.2063 30.4343 23.2413 30.5352 23.2474 30.6399C23.3039 31.6069 23.36 32.5913 23.415 33.5852C23.4193 33.6622 23.4078 33.7392 23.3813 33.8116C23.3548 33.884 23.3138 33.9503 23.2608 34.0063C23.2078 34.0623 23.1439 34.1069 23.0731 34.1374C23.0023 34.1679 22.926 34.1837 22.8489 34.1837H22.8489Z" fill="#2DC15E"/>
<path d="M88.5055 37.382C88.0419 36.5523 87.4582 35.7956 86.7734 35.1366C86.0632 34.4459 85.2729 33.8428 84.4192 33.3403C83.765 32.965 83.0967 32.618 82.4185 32.2911C82.2995 29.9404 82.1722 27.6362 82.0503 25.5297C82.0977 25.5706 82.1463 25.6099 82.192 25.653C82.52 25.9618 82.7718 26.3426 82.9275 26.7653C83.0284 27.0848 83.2075 27.3741 83.4486 27.6069C83.6896 27.8397 83.985 28.0085 84.3079 28.0982C85.0132 28.3294 85.7741 28.3282 86.4787 28.0948C87.319 27.8022 87.9045 27.3286 88.2353 26.6739C88.5656 26.0199 88.5745 25.2875 88.262 24.4765C87.7762 23.122 86.8312 21.9805 85.5912 21.2504C84.3944 20.5214 83.0769 20.0128 81.7008 19.7485C81.5637 17.572 81.4664 16.1294 81.4491 15.8738C81.4351 15.6671 81.3806 15.4651 81.2885 15.2795C81.1965 15.0939 81.0688 14.9283 80.9127 14.792C80.7567 14.6557 80.5753 14.5516 80.379 14.4854C80.1826 14.4193 79.9752 14.3924 79.7685 14.4064C79.7617 14.4069 79.7551 14.4074 79.7483 14.408C79.3348 14.4414 78.951 14.6363 78.6802 14.9506C78.4093 15.2649 78.2732 15.6732 78.3012 16.0872C78.3717 17.1273 78.4471 18.2725 78.525 19.4931C78.2927 19.5008 78.0596 19.514 77.8258 19.5328C77.7063 17.6503 77.6232 16.4172 77.6073 16.1827C77.579 15.7653 77.386 15.3762 77.0708 15.101C76.7556 14.8258 76.344 14.6871 75.9266 14.7154C75.9198 14.7158 75.9132 14.7164 75.9064 14.7169C75.4928 14.7503 75.1091 14.9453 74.8383 15.2596C74.5674 15.5738 74.4312 15.9822 74.4593 16.3961C74.5359 17.5276 74.6184 18.7819 74.7037 20.1242C73.7293 20.4207 72.8006 20.8505 71.9439 21.4013C70.9444 22.0447 70.0921 22.892 69.4428 23.8876C68.8764 24.7554 68.5407 25.7531 68.4671 26.7867C68.4066 27.7947 68.6136 28.8007 69.0674 29.7028C69.5836 30.7125 70.3337 31.5842 71.2551 32.2454C71.8527 32.6775 72.48 33.067 73.1324 33.4109C73.8001 33.7652 74.4856 34.0991 75.1889 34.4126C75.2972 34.461 75.4078 34.508 75.5167 34.5561C75.6796 37.9399 75.813 41.2175 75.8878 44.0335C75.6547 43.9563 75.4227 43.8722 75.1928 43.7731C74.4865 43.4673 73.8489 43.0227 73.3177 42.4657C73.0394 42.1667 72.7806 41.85 72.5429 41.5177C72.302 41.182 72.0554 40.8527 71.803 40.5299C71.3481 39.9603 70.6973 39.5804 69.9776 39.4643C69.2357 39.3316 68.4707 39.4576 67.8105 39.8212C67.5096 39.9661 67.2415 40.171 67.0227 40.4233C66.8039 40.6756 66.6389 40.9699 66.538 41.2883C66.4408 41.6144 66.4173 41.958 66.4693 42.2943C66.5213 42.6307 66.6475 42.9512 66.8386 43.2327C67.4383 44.2193 68.1731 45.1171 69.0216 45.9C69.8777 46.6916 70.8457 47.3528 71.8944 47.8624C72.99 48.3916 74.1492 48.7772 75.3434 49.0099C75.5436 49.0499 75.7457 49.0841 75.9486 49.1158C75.9526 50.0446 75.9082 50.973 75.8157 51.8973C75.7627 52.3123 75.8767 52.7314 76.1326 53.0624C76.3886 53.3934 76.7655 53.6092 77.1806 53.6622C77.5956 53.7153 78.0147 53.6013 78.3457 53.3454C78.6767 53.0894 78.8925 52.7124 78.9455 52.2974C79.0479 51.2941 79.0981 50.2862 79.096 49.2777C79.1377 49.2758 79.179 49.2751 79.2209 49.2728C79.41 49.2615 79.5973 49.2426 79.7849 49.2249C79.7674 50.2429 79.7266 51.0498 79.6577 51.5883C79.6313 51.7939 79.6457 52.0027 79.7 52.2027C79.7543 52.4027 79.8474 52.59 79.9742 52.754C80.1009 52.918 80.2587 53.0554 80.4386 53.1584C80.6184 53.2614 80.8168 53.3279 81.0224 53.3542C81.228 53.3805 81.4367 53.366 81.6367 53.3116C81.8367 53.2571 82.024 53.1639 82.1879 53.037C82.3518 52.9102 82.4891 52.7523 82.592 52.5724C82.6949 52.3925 82.7613 52.1941 82.7875 51.9885C82.8987 50.8646 82.9501 49.7356 82.9413 48.6063C83.7953 48.3396 84.6132 47.9687 85.3765 47.5018C86.2608 46.9586 87.0508 46.2751 87.7154 45.478C88.3994 44.6504 88.9045 43.6901 89.1989 42.6577C89.4785 41.7751 89.5468 40.8393 89.3983 39.9255C89.2473 39.0331 88.9454 38.173 88.5055 37.382V37.382ZM78.2091 24.3768C78.4159 24.3707 78.6213 24.3747 78.8258 24.3848C78.9478 26.4469 79.0695 28.6061 79.1834 30.7726C78.9436 30.6582 78.704 30.5442 78.4636 30.4244C78.3501 28.2915 78.2332 26.2397 78.1235 24.3872C78.1518 24.3844 78.181 24.3791 78.2091 24.3768ZM75.0786 28.3743C74.4857 27.8815 74.2073 27.4027 74.2432 26.9382C74.2902 26.4505 74.5283 26.0012 74.9053 25.6883C74.9462 25.6512 74.993 25.6179 75.0361 25.5822C75.0912 26.5284 75.1461 27.4917 75.2 28.4643C75.1597 28.4337 75.1189 28.4054 75.0786 28.3743V28.3743ZM79.0501 44.4415C78.9879 41.8602 78.8748 38.9259 78.7383 35.9477C78.9764 36.0571 79.2145 36.1666 79.4535 36.282C79.5845 39.1903 79.6883 41.9619 79.7457 44.3603C79.5188 44.3979 79.2874 44.426 79.0501 44.4415ZM82.8554 42.7686C82.8186 41.5132 82.7717 40.192 82.7177 38.8376C83.1336 39.3573 83.4008 39.9802 83.4906 40.6398C83.5357 41.0192 83.5025 41.4038 83.3933 41.7699C83.2841 42.136 83.101 42.4759 82.8554 42.7686V42.7686Z" fill="#5FED73"/>
<path d="M77.3826 54.2426C77.0779 54.2426 76.7767 54.1777 76.499 54.0523C76.2214 53.9269 75.9735 53.7438 75.7721 53.5152C75.5707 53.2865 75.4202 53.0177 75.3307 52.7264C75.2412 52.4352 75.2147 52.1282 75.253 51.8259C75.3153 51.3392 75.356 50.5897 75.3744 49.5939C75.3268 49.5849 75.2792 49.5758 75.2317 49.5662C73.9903 49.3234 72.7851 48.9223 71.6458 48.3726C70.5476 47.838 69.5337 47.1453 68.6364 46.3165C67.7496 45.4975 66.9814 44.5588 66.3537 43.5276C66.1199 43.1775 65.9666 42.7799 65.9048 42.3635C65.8431 41.947 65.8744 41.522 65.9966 41.1191C66.1194 40.7296 66.3202 40.3692 66.5868 40.0597C66.8533 39.7503 67.1801 39.4984 67.5471 39.3194C68.3183 38.8975 69.2104 38.7518 70.0757 38.9062C70.9299 39.0458 71.7021 39.497 72.243 40.1727C72.508 40.5117 72.7615 40.8499 73.0035 41.1873C73.2272 41.5 73.4708 41.798 73.7326 42.0795C74.1799 42.5465 74.7103 42.9261 75.2967 43.1989C75.2269 40.8404 75.1161 38.0668 74.9668 34.9348L74.9566 34.9303C74.2435 34.6122 73.5399 34.2695 72.8664 33.9122C72.1908 33.5557 71.5411 33.1523 70.922 32.7048C69.9263 31.9882 69.1157 31.0445 68.5576 29.9521C68.0616 28.9614 67.8351 27.8576 67.9009 26.7517C67.9813 25.6235 68.3466 24.5342 68.9627 23.5857C69.655 22.5235 70.5631 21.6188 71.628 20.9306C72.4037 20.43 73.2368 20.0247 74.1095 19.7235C74.0341 18.5463 73.9615 17.4419 73.8932 16.4348C73.8571 15.8725 74.0429 15.3184 74.4108 14.8916C74.7786 14.4648 75.2992 14.1992 75.8607 14.152C75.8664 14.1514 75.8921 14.1496 75.8979 14.1493C76.2929 14.1245 76.687 14.2094 77.0368 14.3946C77.3866 14.5799 77.6783 14.8582 77.8798 15.1988C78.027 14.8253 78.2757 14.5004 78.5979 14.2609C78.92 14.0213 79.3027 13.8765 79.7028 13.8429C79.7057 13.8427 79.7289 13.8409 79.7318 13.8408C80.0127 13.8218 80.2946 13.8583 80.5614 13.9483C80.8282 14.0383 81.0746 14.18 81.2866 14.3653C81.4986 14.5505 81.672 14.7757 81.797 15.0281C81.9219 15.2804 81.9959 15.5548 82.0147 15.8357C82.0309 16.0745 82.1166 17.347 82.2396 19.2851C83.5278 19.5791 84.7598 20.0798 85.888 20.7676C87.2369 21.5662 88.2651 22.8101 88.7955 24.2852C88.9783 24.7037 89.0682 25.1569 89.0588 25.6135C89.0494 26.0701 88.9411 26.5193 88.7412 26.9299C88.3433 27.7173 87.6448 28.2895 86.665 28.6307C85.8428 28.9037 84.9549 28.9061 84.1313 28.6376C83.5713 28.4681 83.0822 28.1201 82.7385 27.6467C82.8207 29.1212 82.8975 30.5539 82.9678 31.9283C83.5861 32.2332 84.1559 32.5357 84.7013 32.8486C85.5957 33.3755 86.4241 34.0072 87.1687 34.7305C87.893 35.4289 88.5106 36.23 89.0017 37.1081V37.1083C89.4718 37.9555 89.7949 38.8763 89.9572 39.8316C90.1197 40.8319 90.0457 41.8563 89.7412 42.8229C89.424 43.9279 88.8824 44.9557 88.1504 45.842C87.446 46.6855 86.6095 47.4093 85.6736 47.9852C84.9888 48.4042 84.2617 48.7498 83.5043 49.0162C83.5063 50.033 83.4547 51.0493 83.3497 52.0607C83.2858 52.5481 83.0572 52.9989 82.7018 53.3383C82.3464 53.6778 81.8855 53.8854 81.3957 53.9267C81.2473 53.939 81.0981 53.9355 80.9504 53.9161C80.6265 53.8747 80.3163 53.7599 80.0436 53.5802C79.7709 53.4006 79.5428 53.161 79.3769 52.8797C79.2294 53.2531 78.9806 53.5779 78.6586 53.8175C78.3365 54.057 77.9539 54.2019 77.5539 54.2358C77.4969 54.2402 77.4398 54.2426 77.3826 54.2426ZM69.3908 39.9795C68.9308 39.9828 68.4788 40.1007 68.0759 40.3227C67.8407 40.4333 67.6307 40.5912 67.4592 40.7865C67.2877 40.9819 67.1583 41.2105 67.079 41.4581C67.0067 41.7074 66.9911 41.9697 67.0333 42.2259C67.0756 42.482 67.1746 42.7255 67.3232 42.9384C67.8959 43.8796 68.5971 44.7363 69.4065 45.4838C70.2224 46.2374 71.1444 46.8672 72.1431 47.3531C73.1952 47.8603 74.3081 48.2303 75.4544 48.4542C75.6469 48.4927 75.841 48.5253 76.0359 48.5558C76.1706 48.5769 76.2931 48.6456 76.3812 48.7496C76.4693 48.8536 76.517 48.9858 76.5155 49.1221C76.5204 50.073 76.4745 51.0236 76.378 51.9697C76.3444 52.2354 76.4176 52.5036 76.5815 52.7155C76.7453 52.9274 76.9865 53.0656 77.2521 53.1C77.322 53.1092 77.3926 53.1109 77.4628 53.1051C77.6935 53.0855 77.9105 52.9876 78.0779 52.8277C78.2453 52.6677 78.3529 52.4553 78.3829 52.2258C78.4824 51.2441 78.531 50.2579 78.5286 49.2712C78.5304 49.1266 78.5873 48.9882 78.6877 48.8842C78.7881 48.7802 78.9244 48.7185 79.0687 48.7116L79.1908 48.7069C79.3448 48.6976 79.5014 48.6825 79.658 48.6677L79.7314 48.6606C79.8108 48.6531 79.8909 48.6625 79.9665 48.688C80.0421 48.7136 80.1115 48.7549 80.17 48.8091C80.2286 48.8633 80.2751 48.9293 80.3064 49.0027C80.3377 49.0761 80.3532 49.1553 80.3519 49.2351C80.3486 50.0452 80.3046 50.8547 80.2201 51.6604C80.1864 51.9262 80.2595 52.1946 80.4234 52.4065C80.5872 52.6185 80.8285 52.7568 81.0942 52.7911C81.164 52.7998 81.2346 52.8015 81.3047 52.796C81.5354 52.7765 81.7524 52.6787 81.9198 52.5188C82.0871 52.3589 82.1948 52.1465 82.2247 51.917C82.3331 50.8155 82.383 49.7091 82.374 48.6023C82.3749 48.4825 82.4137 48.3659 82.485 48.2695C82.5562 48.1731 82.6562 48.1018 82.7706 48.0658C83.5801 47.8127 84.3555 47.4611 85.0794 47.019C85.911 46.5072 86.6542 45.864 87.2802 45.1145C87.9134 44.3459 88.3813 43.455 88.6548 42.4975C88.9085 41.6974 88.9716 40.8491 88.8389 40.0203C88.6977 39.1912 88.417 38.392 88.0088 37.6566C87.5716 36.876 87.0219 36.1639 86.3774 35.5432C85.6994 34.8845 84.9452 34.3091 84.1308 33.8291C83.5271 33.4828 82.8845 33.1457 82.172 32.8022C82.0803 32.758 82.0022 32.6899 81.9459 32.605C81.8896 32.5202 81.8571 32.4218 81.8519 32.3201C81.744 30.1922 81.6202 27.9187 81.4839 25.5628C81.4775 25.4516 81.504 25.341 81.56 25.2447C81.6161 25.1484 81.6993 25.0708 81.7991 25.0215C81.899 24.9722 82.0112 24.9534 82.1217 24.9674C82.2323 24.9815 82.3362 25.0277 82.4206 25.1005L82.4576 25.1321C82.4994 25.1676 82.5411 25.2032 82.581 25.2409C82.9721 25.6095 83.2725 26.0637 83.4587 26.5679C83.4616 26.5752 83.464 26.5826 83.4664 26.5901C83.5396 26.8248 83.6715 27.0371 83.8495 27.2067C84.0276 27.3764 84.2459 27.4978 84.4839 27.5596C85.0766 27.7548 85.7166 27.7529 86.3081 27.5542C86.6083 27.4685 86.8886 27.324 87.1325 27.129C87.3764 26.934 87.5791 26.6925 87.7288 26.4185C87.9858 25.9096 87.9871 25.3412 87.7325 24.6808C87.2934 23.4412 86.4294 22.3972 85.2939 21.7339C84.154 21.0412 82.8998 20.5574 81.59 20.3051C81.4673 20.2807 81.3561 20.2164 81.2738 20.1223C81.1914 20.0281 81.1424 19.9094 81.1346 19.7845C80.9974 17.6094 80.9004 16.1678 80.8831 15.9123C80.8741 15.7799 80.8391 15.6506 80.7801 15.5317C80.7212 15.4128 80.6394 15.3067 80.5394 15.2195C80.4394 15.1322 80.3232 15.0655 80.1974 15.0231C80.0717 14.9808 79.9388 14.9636 79.8064 14.9726C79.674 14.9816 79.5447 15.0166 79.4258 15.0756C79.3069 15.1345 79.2008 15.2164 79.1135 15.3163C79.0263 15.4163 78.9596 15.5325 78.9172 15.6583C78.8749 15.784 78.8577 15.9169 78.8667 16.0493C78.9374 17.0899 79.0129 18.2359 79.0909 19.4574C79.0957 19.5332 79.0853 19.6092 79.0602 19.6809C79.0351 19.7526 78.9959 19.8185 78.9448 19.8748C78.8938 19.931 78.8319 19.9764 78.763 20.0083C78.694 20.0402 78.6194 20.0578 78.5435 20.0603C78.3182 20.0677 78.0922 20.0806 77.8713 20.0984C77.7963 20.1045 77.7207 20.0956 77.6491 20.0722C77.5776 20.0488 77.5114 20.0113 77.4544 19.9621C77.3974 19.9128 77.3509 19.8527 77.3174 19.7852C77.2839 19.7177 77.2642 19.6442 77.2595 19.5691C77.1403 17.6879 77.0572 16.456 77.0412 16.2215C77.0323 16.089 76.9974 15.9596 76.9385 15.8407C76.8796 15.7217 76.7977 15.6156 76.6978 15.5282C76.5978 15.4409 76.4816 15.3741 76.3558 15.3317C76.23 15.2893 76.0971 15.2721 75.9647 15.2811C75.8322 15.2901 75.7028 15.3251 75.5839 15.384C75.465 15.443 75.3589 15.5249 75.2716 15.6249C75.1843 15.7249 75.1176 15.8412 75.0753 15.967C75.0329 16.0928 75.0158 16.2257 75.0248 16.3582C75.1015 17.4903 75.1841 18.7455 75.2694 20.0886C75.2775 20.2155 75.2427 20.3414 75.1706 20.4461C75.0986 20.5509 74.9934 20.6283 74.872 20.6661C73.9476 20.9478 73.0663 21.3552 72.253 21.877C71.3229 22.4765 70.529 23.2645 69.9227 24.1901C69.4083 24.9781 69.1022 25.8837 69.033 26.8221C68.98 27.7319 69.1675 28.6396 69.5766 29.454C70.0549 30.3824 70.7469 31.1839 71.5957 31.7924C72.1694 32.2065 72.7715 32.58 73.3974 32.91C74.0487 33.2555 74.7291 33.5868 75.4198 33.895C75.4814 33.9227 75.5428 33.9493 75.6039 33.9758L75.7457 34.0378C75.842 34.0804 75.9245 34.1489 75.984 34.2357C76.0436 34.3225 76.0778 34.4241 76.0829 34.5292C76.2599 38.2013 76.3848 41.3941 76.4544 44.0188C76.4568 44.1098 76.4373 44.2001 76.3975 44.2819C76.3577 44.3638 76.2988 44.4349 76.2257 44.4892C76.1526 44.5434 76.0676 44.5793 75.9777 44.5938C75.8878 44.6082 75.7958 44.6008 75.7094 44.5722C75.4271 44.4789 75.1916 44.3906 74.9681 44.2944C74.193 43.9582 73.493 43.4704 72.9092 42.8597C72.6119 42.5407 72.3355 42.2028 72.0817 41.8482C71.8489 41.5239 71.6045 41.1978 71.3558 40.8794C70.9877 40.4194 70.4607 40.1139 69.8786 40.0232C69.7175 39.9945 69.5543 39.9799 69.3908 39.9795V39.9795ZM79.0499 45.009C78.9019 45.0091 78.7597 44.9512 78.6538 44.8478C78.5478 44.7444 78.4865 44.6036 78.483 44.4557C78.4258 42.0857 78.3211 39.2321 78.1715 35.9741C78.167 35.8769 78.1876 35.7802 78.2313 35.6932C78.275 35.6063 78.3404 35.5321 78.4211 35.4777C78.5017 35.4233 78.5951 35.3906 78.6921 35.3827C78.789 35.3749 78.8864 35.3921 78.9748 35.4328C79.2163 35.5436 79.4575 35.6546 79.6999 35.7716C79.7921 35.8161 79.8705 35.8847 79.9268 35.9701C79.9831 36.0556 80.0152 36.1546 80.0198 36.2569C80.1603 39.3732 80.2586 42.095 80.3124 44.3471C80.3158 44.4837 80.2696 44.6169 80.1825 44.7222C80.0954 44.8274 79.9732 44.8977 79.8384 44.92C79.5838 44.9623 79.3308 44.992 79.0869 45.0079C79.0745 45.0086 79.0621 45.009 79.0499 45.009V45.009ZM82.8552 43.336C82.7077 43.336 82.566 43.2785 82.4601 43.1757C82.3543 43.073 82.2926 42.933 82.2883 42.7855C82.2535 41.5948 82.2072 40.2742 82.1507 38.8606C82.1459 38.7392 82.1802 38.6195 82.2485 38.519C82.3168 38.4186 82.4156 38.3427 82.5302 38.3026C82.6449 38.2626 82.7694 38.2603 82.8854 38.2963C83.0014 38.3323 83.1028 38.4046 83.1747 38.5026C83.6517 39.1051 83.956 39.8258 84.0551 40.5879C84.1073 41.0415 84.0665 41.501 83.9352 41.9384C83.8039 42.3757 83.5848 42.7817 83.2914 43.1316C83.2382 43.1955 83.1715 43.247 83.0961 43.2824C83.0207 43.3177 82.9385 43.336 82.8552 43.336V43.336ZM79.1833 31.3401C79.0988 31.3401 79.0154 31.3213 78.9391 31.2848L78.9099 31.2709C78.6768 31.1598 78.444 31.0487 78.2103 30.9324C78.1205 30.8876 78.0442 30.8198 77.9892 30.7359C77.9341 30.652 77.9024 30.555 77.897 30.4549C77.7954 28.5452 77.681 26.5152 77.557 24.4211C77.5484 24.2747 77.5968 24.1307 77.692 24.0192C77.7873 23.9077 77.9221 23.8374 78.0681 23.8231C78.1113 23.8172 78.1383 23.8138 78.1644 23.8118C78.1737 23.811 78.183 23.8106 78.1923 23.8102C78.3986 23.804 78.6153 23.8069 78.8536 23.8187C78.9932 23.8256 79.1254 23.8838 79.2247 23.9822C79.3241 24.0805 79.3836 24.2121 79.3919 24.3517C79.5229 26.57 79.6434 28.7205 79.7495 30.7432C79.7536 30.8201 79.7419 30.8969 79.7153 30.9692C79.6886 31.0414 79.6476 31.1074 79.5946 31.1633C79.5416 31.2191 79.4779 31.2636 79.4071 31.294C79.3364 31.3244 79.2602 31.3401 79.1833 31.3401L79.1833 31.3401ZM75.1998 29.0318C75.0758 29.0319 74.9551 28.9912 74.8565 28.916L74.8095 28.8813C74.7836 28.8625 74.7577 28.8435 74.732 28.8236C74.7264 28.8194 74.7211 28.8152 74.716 28.8107C73.9765 28.1962 73.6272 27.5516 73.6777 26.8951C73.7346 26.2626 74.0388 25.6781 74.5242 25.2686C74.5592 25.2367 74.5979 25.2058 74.6369 25.1752L74.6748 25.1452C74.7556 25.0785 74.8533 25.0355 74.9571 25.0209C75.0608 25.0064 75.1666 25.0208 75.2626 25.0627C75.3586 25.1046 75.4412 25.1722 75.5011 25.2582C75.5611 25.3441 75.596 25.4449 75.6022 25.5495C75.6573 26.4964 75.7123 27.4601 75.7661 28.4334C75.7704 28.5104 75.7589 28.5874 75.7324 28.6598C75.7059 28.7322 75.6648 28.7985 75.6118 28.8545C75.5588 28.9105 75.495 28.9551 75.4241 28.9856C75.3533 29.0161 75.277 29.0318 75.1999 29.0318H75.1998Z" fill="#2DC15E"/>
<path d="M14.2808 27.2597C14.2281 27.1767 14.1527 27.1104 14.0636 27.0688C13.9745 27.0272 13.8754 27.012 13.7779 27.025C13.6804 27.038 13.5887 27.0786 13.5135 27.142C13.4384 27.2055 13.383 27.2891 13.3539 27.3831C13.1083 27.9596 13.1147 28.9665 12.7383 29.4987C12.2094 30.2464 10.8489 30.0458 10.8634 30.8483C10.8783 31.6711 12.2641 31.2313 12.8842 31.9791C13.5043 32.7268 12.9575 34.1877 13.9694 34.3227C14.7901 34.4321 14.1974 32.5444 15.164 31.9061C16.1306 31.2678 16.9878 31.6417 16.9331 30.8301C16.884 30.1013 15.2552 30.3103 14.854 29.4531C14.5439 28.7907 14.6585 27.8152 14.2808 27.2597Z" fill="#FFE948"/>
<path d="M34.034 49.3228C33.9861 49.2473 33.9177 49.1871 33.8367 49.1494C33.7558 49.1116 33.6657 49.0978 33.5771 49.1096C33.4885 49.1213 33.4052 49.1582 33.3369 49.2159C33.2687 49.2735 33.2183 49.3495 33.1919 49.4348C32.9688 49.9587 32.9746 50.8734 32.6327 51.3569C32.1522 52.0362 30.9161 51.8539 30.9293 52.583C30.9428 53.3305 32.2019 52.9309 32.7652 53.6103C33.3286 54.2896 32.8318 55.6169 33.7511 55.7394C34.4967 55.8388 33.9582 54.1239 34.8364 53.544C35.7146 52.9641 36.4933 53.3038 36.4436 52.5664C36.399 51.9043 34.9193 52.0942 34.5547 51.3155C34.2731 50.7137 34.3772 49.8274 34.034 49.3228Z" fill="#FFE948"/>
<path d="M68.4455 22.2279C68.3962 22.1502 68.3256 22.0881 68.2421 22.0492C68.1587 22.0102 68.0658 21.996 67.9745 22.0081C67.8832 22.0203 67.7973 22.0583 67.7269 22.1177C67.6565 22.1772 67.6046 22.2555 67.5774 22.3435C67.3474 22.8835 67.3534 23.8266 67.0008 24.325C66.5055 25.0253 65.2311 24.8374 65.2447 25.589C65.2587 26.3597 66.5567 25.9478 67.1375 26.6481C67.7183 27.3485 67.2061 28.7168 68.1539 28.8431C68.9226 28.9456 68.3674 27.1776 69.2728 26.5798C70.1781 25.9819 70.981 26.3321 70.9297 25.5719C70.8837 24.8894 69.3582 25.0851 68.9824 24.2823C68.692 23.6619 68.7994 22.7482 68.4455 22.2279Z" fill="#FFE948"/>
<path d="M86.5647 43.4863C86.5199 43.4156 86.4558 43.3592 86.3799 43.3238C86.3041 43.2885 86.2197 43.2755 86.1368 43.2865C86.0538 43.2976 85.9758 43.3321 85.9119 43.3861C85.8479 43.4401 85.8008 43.5113 85.776 43.5912C85.567 44.0818 85.5725 44.9386 85.2523 45.3914C84.8022 46.0277 83.6445 45.857 83.6568 46.5398C83.6695 47.2399 84.8487 46.8657 85.3764 47.502C85.904 48.1382 85.4388 49.3813 86.2998 49.4961C86.9981 49.5892 86.4938 47.983 87.3163 47.4399C88.1388 46.8967 88.8682 47.2149 88.8216 46.5243C88.7798 45.9042 87.3939 46.082 87.0524 45.3526C86.7886 44.789 86.8862 43.9589 86.5647 43.4863Z" fill="#FFE948"/>
<path d="M114.677 58.5239L108.051 79.6779C104.709 77.8245 102.418 74.7257 102.132 71.0688C101.642 64.7986 107.237 59.2317 114.677 58.5239Z" fill="#A0DDF8"/>
<path d="M65.5572 64.436L58.5475 86.8036C57.6323 86.7019 56.728 86.5181 55.8457 86.2546L62.8441 63.9097C63.7624 64.0038 64.6704 64.18 65.5572 64.436V64.436Z" fill="#A0DDF8"/>
<path d="M123.649 60.314L117.023 81.4634C116.932 81.4725 116.839 81.4816 116.749 81.4884C115.734 81.5689 114.714 81.5538 113.702 81.443L120.707 59.0845C121.73 59.3838 122.717 59.7962 123.649 60.314V60.314Z" fill="white"/>
<path d="M68.5039 65.6492L61.8662 86.8372C61.7982 86.844 61.7301 86.8508 61.662 86.8553C60.6246 86.9383 59.5815 86.9208 58.5474 86.8031L65.5571 64.4355C66.5811 64.7301 67.5694 65.1371 68.5039 65.6492V65.6492Z" fill="white"/>
<path d="M62.8442 63.9096L55.8458 86.2545C54.8226 85.9517 53.8365 85.5355 52.9058 85.0137L59.5185 63.9005C59.6342 63.8892 59.7476 63.8801 59.8633 63.871C60.856 63.7917 61.8539 63.8046 62.8442 63.9096V63.9096Z" fill="white"/>
<path d="M129.568 68.923C130.056 75.1932 124.461 80.7601 117.023 81.4634L123.649 60.314C126.991 62.1696 129.282 65.2684 129.568 68.923Z" fill="#A0DDF8"/>
<path d="M117.998 58.5469L110.993 80.9054C109.97 80.6078 108.983 80.1962 108.051 79.6782L114.677 58.5242C114.768 58.5174 114.861 58.5083 114.952 58.5015C115.967 58.421 116.987 58.4362 117.998 58.5469V58.5469Z" fill="white"/>
<path d="M74.4815 74.2902C74.9715 80.5808 69.3387 86.1614 61.8662 86.8374L68.5039 65.6494C71.8772 67.5005 74.1934 70.6129 74.4815 74.2902Z" fill="#A0DDF8"/>
<path d="M120.707 59.0845L113.702 81.443C112.785 81.3451 111.878 81.1652 110.993 80.9054L117.998 58.5469C118.915 58.6461 119.822 58.826 120.707 59.0845V59.0845Z" fill="#A0DDF8"/>
<path d="M59.5185 63.9004L52.9057 85.0135C49.5982 83.1556 47.3297 80.0726 47.0462 76.4362C46.5562 70.1864 52.1163 64.6331 59.5185 63.9004Z" fill="#A0DDF8"/>
<path d="M60.3711 88.4948C59.7011 88.495 59.0317 88.4569 58.366 88.3807C57.358 88.2682 56.3622 88.0657 55.3904 87.7755C54.2547 87.439 53.1602 86.9768 52.1273 86.3973C48.2082 84.1961 45.7788 80.6102 45.4629 76.5596C45.1895 73.0718 46.516 69.6688 49.1981 66.9782C51.8028 64.3653 55.4124 62.711 59.362 62.3201C59.4893 62.3075 59.6136 62.2975 59.7405 62.2877C60.8309 62.201 61.9269 62.2154 63.0146 62.3307C64.0251 62.4348 65.0243 62.629 66.0003 62.9108C67.1368 63.2381 68.2335 63.6902 69.2705 64.2587C73.2658 66.451 75.743 70.0627 76.0647 74.1662V74.1668C76.3383 77.6793 74.994 81.0989 72.2791 83.7958C69.6409 86.4166 65.9937 88.0584 62.0094 88.4188C61.9405 88.4259 61.8554 88.4339 61.7703 88.4397C61.306 88.4764 60.8385 88.4948 60.3711 88.4948ZM61.1581 65.408C60.7702 65.408 60.3798 65.4233 59.987 65.454C59.8814 65.4622 59.7789 65.4704 59.6744 65.4807C53.1665 66.1249 48.2115 70.9838 48.6292 76.3122C48.8614 79.2885 50.7034 81.9551 53.6834 83.6288C54.5111 84.0928 55.3881 84.4629 56.2981 84.7321C57.0902 84.9687 57.902 85.1336 58.7237 85.225C59.6578 85.3314 60.6 85.3473 61.5372 85.2724C61.6051 85.2677 61.656 85.2624 61.7071 85.2573C68.3046 84.6605 73.3178 79.7967 72.8985 74.4136C72.6619 71.3974 70.7817 68.7107 67.74 67.0416C66.9076 66.5856 66.0272 66.2231 65.115 65.9609C64.3189 65.7313 63.5039 65.5733 62.6797 65.4889C62.1743 65.4347 61.6664 65.4077 61.1581 65.408V65.408Z" fill="#3B8EEA"/>
<path d="M115.461 83.127C114.815 83.1272 114.17 83.0919 113.527 83.0213C112.518 82.9131 111.52 82.7148 110.546 82.4289C109.409 82.0979 108.312 81.6403 107.277 81.0647C103.322 78.8709 100.868 75.272 100.549 71.1929C100.276 67.6922 101.611 64.2809 104.309 61.5869C106.93 58.9699 110.559 57.3207 114.527 56.9432C114.538 56.9422 114.548 56.9413 114.559 56.9405L114.832 56.9179C115.945 56.8303 117.063 56.8472 118.172 56.9683C119.182 57.0779 120.179 57.2761 121.154 57.5606C122.291 57.8936 123.388 58.352 124.424 58.9275C128.38 61.1261 130.832 64.7239 131.151 68.7992C131.423 72.3006 130.087 75.7115 127.389 78.4045C124.768 81.0215 121.139 82.6691 117.172 83.0441C117.077 83.0537 116.972 83.0639 116.869 83.0718C116.4 83.1086 115.93 83.127 115.461 83.127ZM114.822 60.1055C108.279 60.7305 103.297 65.5921 103.715 70.9452C103.95 73.943 105.811 76.6198 108.821 78.2896C109.65 78.7502 110.529 79.1164 111.439 79.3813C112.233 79.6143 113.047 79.7758 113.87 79.8638C114.784 79.9642 115.707 79.978 116.624 79.9052C116.707 79.899 116.787 79.891 116.865 79.8833C123.417 79.2639 128.401 74.4027 127.985 69.0462C127.751 66.0514 125.889 63.3743 122.878 61.7022L122.875 61.7003C122.046 61.2402 121.168 60.8736 120.258 60.6075C119.463 60.3758 118.649 60.2145 117.826 60.1253C116.913 60.0256 115.992 60.0119 115.076 60.0844L114.822 60.1055Z" fill="#3B8EEA"/>
<path d="M74.4801 75.8786C74.2073 75.8783 73.9392 75.8077 73.7015 75.6737C73.4639 75.5397 73.2649 75.3467 73.1235 75.1134C72.9821 74.8801 72.9032 74.6143 72.8944 74.3417C72.8856 74.069 72.9471 73.7987 73.0731 73.5567C75.7776 68.3666 81.833 64.8787 88.8759 64.4542C95.1838 64.0737 100.765 66.2647 103.442 70.1714C103.68 70.5189 103.771 70.9466 103.693 71.3606C103.616 71.7746 103.377 72.141 103.03 72.379C102.683 72.6171 102.255 72.7074 101.841 72.6301C101.427 72.5528 101.06 72.3142 100.822 71.9668C98.772 68.9749 94.2676 67.3125 89.067 67.6242C84.4146 67.9047 78.5098 69.996 75.8897 75.0241C75.7555 75.282 75.553 75.498 75.3045 75.6486C75.0559 75.7993 74.7707 75.8789 74.4801 75.8786V75.8786Z" fill="#3B8EEA"/>
</g>
<defs>
<clipPath id="clip0_1158_58560">
<rect width="152" height="104" fill="white"/>
</clipPath>
</defs>
</svg>
