<svg width="125" height="104" viewBox="0 0 125 104" fill="none" xmlns="http://www.w3.org/2000/svg">
<g clip-path="url(#clip0_1158_58577)">
<path d="M36.5841 78.7119C34.6735 78.3864 33.4109 76.1727 33.6539 73.8653C34.0316 70.2789 38.988 66.4651 41.6045 67.7725C44.737 69.3378 40.9269 79.4518 36.5841 78.7119Z" fill="#34248F"/>
<path d="M50.2431 78.3277C51.8747 78.0175 52.9528 75.908 52.7453 73.7091C52.4228 70.2914 49.2462 66.6712 47.0118 67.9171C44.3368 69.4088 46.5345 79.0328 50.2431 78.3277Z" fill="#34248F"/>
<path opacity="0.2" d="M36.3241 81.4969C34.3874 81.4264 32.8455 79.3986 32.7838 77.0791C32.6878 73.4741 37.101 69.0392 39.8662 69.9899C43.1767 71.1281 40.7262 81.6571 36.3241 81.4969Z" fill="#34248F"/>
<path opacity="0.2" d="M52.1966 80.2147C53.9647 79.6283 54.853 77.1238 54.2989 74.7101C53.4377 70.9586 49.374 67.4044 47.0735 69.1202C44.3192 71.1743 48.1777 81.5474 52.1966 80.2147Z" fill="#34248F"/>
<path d="M24.839 37.6771C23.7423 39.0887 22.5633 40.4345 21.3082 41.7074C18.2743 44.7019 13.8392 41.3945 16.6338 37.401C17.7402 35.8128 18.9384 34.2907 20.2224 32.8423C21.4318 34.2699 22.9855 35.8841 24.839 37.6771Z" fill="#DCFFFC"/>
<path d="M32.7157 27.0082C32.7183 28.2727 31.714 29.7161 29.2401 33.0576L29.1639 33.1259C27.8756 31.6984 26.4113 30.213 25.0205 28.9274C26.8135 26.9661 28.6197 25.0784 29.2296 24.8418C31.3512 24.0216 32.7131 25.2704 32.7157 27.0082Z" fill="#DCFFFC"/>
<path d="M32.0612 36.6675C34.2906 39.867 32.8394 42.6118 30.2919 42.0965C29.6835 41.9624 29.1223 41.6673 28.6671 41.242C27.279 39.9853 25.9986 38.797 24.8392 37.677C22.9857 35.884 21.432 34.2698 20.2226 32.8422C18.0379 30.2579 16.9705 28.2914 17.2676 27.011C17.6593 25.3179 18.5506 24.8999 20.2752 25.4152C21.2506 25.7044 23.062 27.1188 25.0206 28.9276C26.4114 30.2132 27.8758 31.6986 29.164 33.1262C30.1996 34.2477 31.1671 35.4302 32.0612 36.6675V36.6675Z" fill="#DCFFFC"/>
<path d="M29.2373 34.8974C28.8966 34.8972 28.5626 34.8023 28.2726 34.6234C27.9826 34.4446 27.7479 34.1887 27.5948 33.8843C27.4416 33.5799 27.3759 33.239 27.4051 32.8995C27.4343 32.5601 27.5571 32.2353 27.76 31.9616C29.3628 29.7983 30.8766 27.7551 30.875 27.0105C30.8858 26.9134 30.8763 26.815 30.847 26.7217C30.8178 26.6284 30.7694 26.5422 30.7051 26.4686C30.4654 26.3948 30.2066 26.4155 29.9818 26.5266C29.7218 26.7081 28.8963 27.4167 26.3764 30.1692C26.2132 30.3475 26.0165 30.4919 25.7975 30.5941C25.5785 30.6963 25.3416 30.7545 25.1002 30.7651C24.8587 30.7758 24.6175 30.7388 24.3904 30.6562C24.1633 30.5737 23.9546 30.4472 23.7764 30.284C23.5981 30.1208 23.4537 29.9241 23.3515 29.7052C23.2493 29.4862 23.1912 29.2492 23.1805 29.0078C23.1698 28.7663 23.2068 28.5252 23.2894 28.298C23.3719 28.0709 23.4984 27.8622 23.6616 27.684C26.8483 24.2031 27.8129 23.4182 28.5646 23.1268C30.1171 22.5248 31.615 22.6323 32.7819 23.4298C33.3485 23.8336 33.8068 24.371 34.1162 24.9943C34.4256 25.6176 34.5766 26.3076 34.5557 27.0031C34.5595 28.8873 33.3819 30.5564 30.7176 34.1526C30.5464 34.384 30.3233 34.5719 30.0662 34.7013C29.809 34.8307 29.5251 34.8978 29.2373 34.8974Z" fill="#34248F"/>
<path d="M18.7334 44.7033C17.5838 44.7072 16.4694 44.3063 15.5858 43.5708C13.2034 41.5582 13.6777 38.4152 15.1264 36.3464C16.2705 34.7026 17.51 33.1274 18.8384 31.6287C19.16 31.2619 19.6141 31.0377 20.1009 31.0055C20.5877 30.9733 21.0674 31.1357 21.4345 31.457C21.8016 31.7783 22.0261 32.2322 22.0587 32.719C22.0912 33.2058 21.9292 33.6855 21.6082 34.0529C20.3675 35.4521 19.2099 36.9229 18.1414 38.4576C17.4754 39.4088 17.4063 40.2907 17.9611 40.7593C18.4135 41.1415 19.2243 41.179 20.0153 40.3985C21.215 39.1791 22.3425 37.8908 23.3923 36.5402C23.6936 36.1564 24.1351 35.908 24.6196 35.8496C25.1041 35.7912 25.5919 35.9277 25.9758 36.229C26.3597 36.5302 26.6082 36.9716 26.6667 37.4561C26.7253 37.9405 26.5889 38.4284 26.2878 38.8124C25.142 40.2852 23.9109 41.6896 22.6007 43.0183C22.0997 43.5411 21.4998 43.9593 20.836 44.2485C20.1721 44.5378 19.4575 44.6923 18.7334 44.7033V44.7033Z" fill="#34248F"/>
<path d="M30.881 43.9978C30.5606 43.9973 30.241 43.9648 29.927 43.9007C28.9949 43.701 28.1337 43.2542 27.4335 42.6073C17.9908 34.0667 14.7497 29.7273 15.4747 26.5955V26.5958C15.7831 25.2625 16.3751 24.3573 17.2845 23.8284C18.6765 23.0181 20.275 23.4946 20.8003 23.651C23.8607 24.5632 31.1445 32.1353 33.5696 35.6149C35.173 37.9151 35.4475 40.4429 34.2865 42.2119C33.915 42.7721 33.4081 43.2294 32.8128 43.5416C32.2175 43.8538 31.5531 44.0107 30.881 43.9978V43.9978ZM19.0609 27.4238C19.0568 27.4538 18.9551 28.4305 21.3975 31.3771C23.1975 33.5489 25.9796 36.3294 29.9023 39.8776C30.1131 40.0795 30.3731 40.2228 30.6564 40.293C30.9414 40.351 31.1278 40.3169 31.2094 40.1924C31.4169 39.8763 31.4125 38.9569 30.5501 37.7197C27.8956 33.9112 21.2886 27.6374 19.7492 27.1783C19.5615 27.1185 19.3685 27.0767 19.1728 27.0536C19.1259 27.1739 19.0884 27.2976 19.0609 27.4238H19.0609Z" fill="#34248F"/>
<path d="M78.6294 29.6152C85.5861 35.6423 88.5248 43.6656 87.3475 47.9405C86.8879 49.6124 85.9657 49.9575 85.3133 50.0705C82.1433 50.6298 80.0112 46.5215 79.9934 46.4888C79.8252 46.1525 79.5694 45.8683 79.2531 45.6661C78.9369 45.4639 78.572 45.3514 78.1971 45.3404C77.8223 45.3294 77.4515 45.4204 77.124 45.6037C76.7966 45.7871 76.5247 46.0559 76.3372 46.3817C76.2096 46.6018 73.2206 51.677 69.2262 49.9367C68.2061 49.0055 67.7109 47.7442 67.7139 46.0901C67.7198 42.4638 71.213 34.5416 76.8917 29.874C77.4492 29.4129 78.2617 29.2939 78.6294 29.6123L78.6294 29.6152Z" fill="#FFBFE0"/>
<path d="M71.5981 53.0216C71.435 53.0216 71.2705 53.016 71.1034 53.0044C69.9874 52.9186 68.9133 52.5412 67.9877 51.9099C67.0622 51.2786 66.3175 50.4152 65.8276 49.4057C63.9084 45.486 65.5852 40.6546 67.3298 37.2921C69.2096 33.6692 72.1342 29.9593 74.7807 27.8409C75.6982 27.1313 76.8297 26.7575 77.9879 26.7813C79.1461 26.8052 80.2615 27.2252 81.1492 27.9718V27.9718C88.7677 34.6848 91.3494 43.2164 89.9621 48.1743C89.265 50.6658 87.5303 52.3292 85.2033 52.7382C82.8304 53.1544 80.5414 52.3441 78.5813 50.3936C78.3825 50.1959 78.1975 49.9964 78.026 49.7998C76.6415 51.304 74.4385 53.0216 71.5981 53.0216ZM77.8901 30.464C77.596 30.4558 77.3075 30.545 77.0691 30.7179C75.2029 32.2117 72.4741 35.3493 70.5844 38.9915C68.6706 42.6801 68.1508 45.8023 69.1207 47.7833C69.3265 48.2149 69.6413 48.585 70.0338 48.8567C70.4262 49.1285 70.8828 49.2925 71.358 49.3325C74.2765 49.5461 76.4761 45.8028 76.4979 45.7651C76.6637 45.4772 76.9039 45.2398 77.1933 45.0778C77.4826 44.9158 77.8102 44.8353 78.1414 44.8449C78.4726 44.8544 78.7951 44.9537 79.0746 45.1322C79.3542 45.3106 79.5804 45.5616 79.7294 45.8585C79.7453 45.8896 81.6785 49.6211 84.5704 49.1125C84.9133 49.0524 85.9569 48.8688 86.4296 47.1797C87.4953 43.372 84.9056 36.1806 78.7282 30.7375C78.4895 30.5504 78.1928 30.4536 77.8901 30.464V30.464Z" fill="#34248F"/>
</g>
<defs>
<clipPath id="clip0_1158_58577">
<rect width="125" height="104" fill="white"/>
</clipPath>
</defs>
</svg>
