<svg width="139" height="104" viewBox="0 0 139 104" fill="none" xmlns="http://www.w3.org/2000/svg">
<g clip-path="url(#clip0_1158_58549)">
<path d="M57.1205 40.4802C56.8191 40.515 56.526 40.6015 56.2539 40.7358C57.2088 40.0897 57.9202 39.3588 58.3332 38.5386C62.1562 41.3717 63.1055 47.3522 62.6512 48.7812C62.1959 50.2092 60.9159 49.9303 60.9159 49.9303C61.6526 49.3127 61.4421 45.7539 60.9827 45.1307C60.5223 44.5076 60.7161 43.1815 60.1311 42.2325C59.0742 40.6611 57.9434 40.3861 57.1205 40.4802Z" fill="#FFFFCC"/>
<path d="M59.0645 16.8505C60.6596 16.0189 62.8713 19.1843 62.0857 25.0323C61.5377 29.1148 57.57 32.1784 55.0992 33.7155C54.8785 33.2355 54.6458 32.7739 54.4009 32.3306C57.0359 30.9644 56.8274 29.4789 58.9122 27.7828C60.9971 26.0857 61.2435 20.9127 60.1963 19.9564C59.1501 19.001 60.1006 17.0789 59.0645 16.8505Z" fill="#FFFFCC"/>
<path d="M60.9823 45.1308C61.4417 45.7539 61.6523 49.3128 60.9155 49.9304C60.6287 45.2074 57.8139 41.3613 57.1201 40.4803C57.943 40.3862 59.0738 40.6612 60.1307 42.2326C60.7157 43.1815 60.5219 44.5077 60.9823 45.1308Z" fill="#7273C5"/>
<path d="M60.1965 19.9565C61.2437 20.9128 60.9973 26.0858 58.9125 27.7829C56.8276 29.479 57.0362 30.9644 54.4011 32.3307C54.1982 31.9621 53.9877 31.6063 53.7696 31.2634C53.4618 30.5443 53.2921 29.5881 53.9858 28.8125C55.2793 27.3656 55.5261 27.695 57.1626 26.1694C58.768 24.6713 60.9486 20.5957 58.3389 18.1341C58.4367 17.5438 58.6417 17.0716 59.0647 16.8506C60.1008 17.0789 59.1503 19.0011 60.1965 19.9565Z" fill="white"/>
<path d="M55.1357 33.7958C57.2154 32.8839 59.6885 36.7882 58.333 38.5389C57.9199 39.3592 57.2085 40.0901 56.2537 40.7361C56.2515 40.737 56.2496 40.7382 56.2478 40.7397C56.2352 40.7451 56.2236 40.7514 56.2119 40.7577C57.2599 39.8574 57.2068 36.4795 56.2447 35.4984C55.2703 34.5051 53.2034 35.8089 53.4911 34.798L53.4911 34.797C54.0622 34.5024 54.6117 34.1678 55.1357 33.7958Z" fill="#FFFFCC"/>
<path d="M58.3389 18.1343C60.9486 20.5959 58.768 24.6714 57.1627 26.1696C55.5262 27.6951 55.2794 27.3657 53.9859 28.8127C53.2922 29.5883 53.4618 30.5444 53.7697 31.2636C52.8731 29.8436 51.7826 28.5558 50.5298 27.4376C54.597 26.5645 57.2752 23.8302 57.9686 22.4508C58.4521 21.489 58.1119 19.4979 58.3389 18.1343Z" fill="#C6DBE0"/>
<path d="M56.2446 35.4983C57.2066 36.4794 57.2598 39.8573 56.2118 40.7576C56.2113 40.7581 56.2106 40.7585 56.2099 40.7585C56.1051 40.8065 56.0087 40.8708 55.924 40.949C53.1326 42.6862 48.5277 43.7778 43.3092 44.3255C47.8522 42.6914 44.4947 42.9567 40.6768 43.0073C36.8397 43.0585 23.6683 43.6594 22.8145 42.4446C21.9616 41.2298 24.9277 40.7174 23.1891 39.8199C21.4505 38.9225 24.7918 37.1957 27.0721 37.5127C27.8239 37.6167 29.444 37.7513 31.3612 37.8622L31.3621 37.8622C33.1661 38.0068 34.9356 38.0713 36.6521 38.0637C38.9806 38.098 41.0369 38.0377 41.9168 37.7981C46.613 37.3338 50.6481 36.2806 53.4909 34.7979C53.2033 35.8088 55.2702 34.505 56.2446 35.4983Z" fill="#B3C2FF"/>
<path d="M55.0995 33.7155C55.1116 33.7426 55.1238 33.7687 55.1359 33.7957C54.6119 34.1677 54.0624 34.5023 53.4913 34.7969C53.777 33.786 51.7892 31.9711 51.4165 31.339C51.0449 30.706 49.0339 30.6261 48.8575 27.7993C48.813 26.9121 48.4373 26.0739 47.8047 25.4502C48.775 26.0233 49.6876 26.6888 50.5298 27.4374C51.7827 28.5557 52.8732 29.8435 53.7697 31.2634C53.9332 31.645 54.1454 32.0037 54.4012 32.3307C54.6454 32.7739 54.8782 33.2356 55.0995 33.7155Z" fill="#FFFFCC"/>
<path d="M51.4163 31.3387C51.7889 31.9708 53.7767 33.7857 53.491 34.7966L53.491 34.7976C50.6482 36.2803 46.6131 37.3335 41.9169 37.7978C44.2103 37.1732 32.4071 37.1153 30.5267 35.2621C28.6464 33.4089 35.9054 32.6229 32.5874 30.7367C31.3432 30.0285 34.9066 26.7417 36.2651 27.9552C37.3183 28.9167 38.6824 29.4669 40.1079 29.5051L40.2109 29.5066C43.3638 29.5486 46.1185 29.0703 47.5891 28.3249C49.9018 27.6265 47.4251 25.5085 46.2621 24.6357C46.7856 24.881 47.2997 25.1524 47.8044 25.4499C48.437 26.0736 48.8127 26.9118 48.8572 27.799C49.0336 30.6258 51.0446 30.7057 51.4163 31.3387ZM34.5587 35.1238C35.2118 34.982 36.1761 33.6527 34.5877 33.0416C33.049 32.4488 33.9065 35.2657 34.5587 35.1238Z" fill="#A4A4F4"/>
<path d="M46.262 24.636C47.4249 25.5088 49.9017 27.6268 47.5889 28.3252C46.1183 29.0705 43.3637 29.5489 40.2108 29.5068L40.1077 29.5054C38.6822 29.4671 37.3181 28.9169 36.265 27.9554C34.9064 26.742 31.343 30.0288 32.5873 30.7369C35.9052 32.6231 28.6462 33.4091 30.5266 35.2624C32.4069 37.1156 44.2101 37.1735 41.9167 37.7981C40.2384 37.9636 38.4755 38.0548 36.652 38.0637C34.9148 38.0376 33.027 37.9595 31.3621 37.8622L31.3611 37.8622C26.4937 37.4803 21.6866 36.5384 17.0351 35.055C16.9054 35.0132 16.7734 34.9792 16.6396 34.9532L16.9211 34.1765C17.9147 34.5534 18.8794 34.8631 19.7534 35.1123L19.7543 35.1124C20.3089 35.271 20.8262 35.4051 21.2908 35.5162C22.8451 35.9508 24.5275 35.076 25.4173 33.4985C25.3976 33.655 25.3582 33.8085 25.3002 33.9552C25.5327 33.7158 25.5839 33.4971 25.539 33.2686C25.6601 33.0249 25.7603 32.7714 25.8385 32.5107C26.4959 30.3326 25.5255 28.1457 23.6709 27.6273C23.646 27.6204 23.621 27.6136 23.596 27.6077C23.4417 27.3968 23.23 27.2347 22.9861 27.1408C26.7428 23.4585 37.6734 20.6068 46.262 24.636Z" fill="#7273C5"/>
<path d="M16.6398 34.9534C16.7736 34.9793 16.9056 35.0133 17.0352 35.0552C21.6868 36.5385 26.4939 37.4805 31.3613 37.8623C29.4441 37.7514 27.824 37.6168 27.0722 37.5128C24.7919 37.1958 21.4506 38.9226 23.1892 39.82C24.9278 40.7175 21.9617 41.2299 22.8146 42.4447C23.6684 43.6595 36.8398 43.0586 40.677 43.0074C44.4948 42.9568 47.8524 42.6915 43.3094 44.3256C39.1885 44.759 34.6852 44.8528 30.3892 44.6596C26.1 44.3147 22.2553 43.8065 21.2587 43.7102C21.1472 43.6994 21.0259 43.6921 20.8978 43.6894C20.7297 43.6612 20.5635 43.6311 20.3982 43.6019C17.4832 43.0751 15.0463 42.3819 13.4205 41.5499C12.9861 41.3345 12.6375 40.9783 12.4315 40.5394C12.2254 40.1005 12.1741 39.6048 12.2858 39.133C12.5187 38.1778 12.9853 37.1768 13.4566 36.3268C14.0751 35.2112 15.3756 34.7098 16.6398 34.9534Z" fill="#8FA6EF"/>
<path d="M34.5876 33.042C36.1761 33.6531 35.2117 34.9824 34.5586 35.1243C33.9065 35.2661 33.049 32.4493 34.5876 33.042Z" fill="#7273C5"/>
<path d="M23.671 27.6275C25.5257 28.1459 26.496 30.3328 25.8386 32.5109C25.7604 32.7716 25.6602 33.0251 25.5391 33.2688C25.4323 32.7108 24.7541 32.093 24.7698 30.9681C24.7727 30.7598 24.4048 28.61 23.5962 27.6079C23.6212 27.6138 23.6461 27.6206 23.671 27.6275Z" fill="#FFFFCC"/>
<path d="M22.7299 33.1814C22.5616 32.8855 22.6399 32.2421 20.3681 32.4919C17.1287 32.8487 13.1399 30.2364 10.9987 27.7462C8.85848 25.255 11.2054 24.6608 10.2999 23.2879C9.57633 22.1925 10.4231 18.4512 11.607 17.0527C12.1874 16.7395 12.7693 16.6633 13.1497 16.9427C13.3409 17.7362 12.1395 19.4214 11.9446 20.1336C11.6909 21.0589 10.5647 23.774 13.0962 25.5557C15.3425 27.1353 18.5625 29.6239 20.8034 28.4133C21.1076 28.2462 21.3794 28.0261 21.6061 27.7633C21.9312 27.6066 22.2847 27.5173 22.6452 27.5009C22.9658 27.488 23.2866 27.524 23.5963 27.6077C24.405 28.6098 24.7728 30.7596 24.7699 30.9679C24.7543 32.0928 25.4324 32.7106 25.5393 33.2686C25.5006 33.3468 25.4601 33.4231 25.4176 33.4984C25.505 32.6181 24.3421 32.988 23.2805 33.2724C22.918 33.3692 22.8013 33.3064 22.7299 33.1814Z" fill="white"/>
<path d="M23.2803 33.2726C24.3418 32.9883 25.5047 32.6183 25.4173 33.4987C24.5275 35.0763 22.8452 35.9511 21.2908 35.5164C20.8262 35.4053 20.3089 35.2712 19.7544 35.1126C20.9466 35.1283 22.0758 34.2763 22.7296 33.1816C22.8011 33.3067 22.9177 33.3694 23.2803 33.2726Z" fill="#C6DBE0"/>
<path d="M16.9212 34.1766C10.7269 31.8271 3.46193 26.8829 10.6437 17.8098C10.9219 17.5072 11.2471 17.2516 11.6068 17.0527C10.4229 18.4512 9.57613 22.1926 10.2996 23.2879C11.2052 24.6609 8.85828 25.2551 10.9985 27.7462C13.1397 30.2365 17.1285 32.8488 20.3679 32.492C22.6397 32.2421 22.5614 32.8855 22.7297 33.1814C22.0758 34.2761 20.9467 35.1281 19.7544 35.1124L19.7535 35.1124C18.8795 34.8632 17.9148 34.5534 16.9212 34.1766Z" fill="#C6DBE0"/>
<path d="M20.7201 28.3855C20.748 28.3942 20.7758 28.4039 20.8036 28.4135C18.5627 29.6241 15.3427 27.1355 13.0963 25.5559C10.5648 23.7742 11.6911 21.0591 11.9447 20.1338C12.1396 19.4216 13.3411 17.7364 13.1498 16.9429C13.5922 17.2667 13.7621 18.071 13.3391 19.5402C12.3957 22.8181 12.5035 25.5875 20.7201 28.3855Z" fill="#FFFFCC"/>
<path d="M20.3984 43.6018C20.2409 43.6215 20.087 43.663 19.941 43.7251C17.4732 43.9444 13.8316 45.0975 14.2136 46.9271C14.6722 49.1291 11.078 49.4457 11.5646 50.9498C12.006 52.3145 13.6241 52.6667 14.7246 53.3181C13.9126 53.4633 12.8656 53.3923 11.5346 53.1052C8.27528 52.4033 8.7162 47.1635 13.4206 41.5498C15.0465 42.3818 17.4833 43.075 20.3984 43.6018Z" fill="#7273C5"/>
<path d="M19.9409 43.7251C19.6994 43.8308 19.4803 43.9814 19.2951 44.1689C17.7071 44.1514 16.2953 44.8198 16.0079 46.9262C15.744 48.8579 16.1255 51.8941 15.4304 53.116C15.2035 53.2098 14.9667 53.2776 14.7245 53.3182C13.624 52.6667 12.0059 52.3145 11.5645 50.9499C11.0778 49.4458 14.6721 49.1291 14.2134 46.9271C13.8315 45.0976 17.473 43.9445 19.9409 43.7251Z" fill="#A4A4F4"/>
<path d="M19.2954 44.1688C17.7484 45.6937 17.3985 49.7975 16.9213 51.3485C16.6569 52.2087 16.1835 52.7994 15.4307 53.1158C16.1258 51.8939 15.7442 48.8578 16.0081 46.9261C16.2956 44.8197 17.7073 44.1513 19.2954 44.1688Z" fill="#FFFFCC"/>
<path d="M34.7127 45.405C33.6047 45.405 32.4817 45.3855 31.3438 45.3464C23.337 45.0696 16.5264 43.8661 13.1255 42.127C12.5613 41.8453 12.1091 41.381 11.8423 40.8096C11.5756 40.2382 11.51 39.5933 11.6563 38.9799C11.8699 38.1017 12.285 37.1033 12.8901 36.0125C13.7009 34.5511 15.5274 33.889 17.2335 34.438C24.2088 36.6833 32.0593 37.7144 39.3402 37.3408C46.0076 36.9988 51.6271 35.5147 54.7577 33.2693C54.7944 33.2429 54.8338 33.2205 54.8751 33.2024C56.0029 32.7077 57.3211 33.1918 58.3156 34.4658C59.2974 35.7234 59.7989 37.6324 58.8848 38.8838C57.967 40.6518 55.8126 42.1001 52.4797 43.1894C48.0933 44.6231 41.7456 45.405 34.7127 45.405ZM16.0157 35.5418C15.1799 35.5418 14.4101 35.9448 14.0236 36.6414C13.4748 37.6308 13.102 38.5206 12.9159 39.2863C12.8393 39.6164 12.8766 39.9628 13.0218 40.269C13.1671 40.5752 13.4116 40.8233 13.7157 40.9729C17.5342 42.9255 26.0498 44.1153 34.6434 44.1155C41.0475 44.1156 47.4942 43.4551 52.077 41.9572C55.0604 40.9821 57.0234 39.6994 57.7541 38.2479C57.7728 38.2108 57.795 38.1755 57.8204 38.1426C58.3566 37.4496 57.9738 36.1345 57.2938 35.2634C56.827 34.6655 56.1038 34.1265 55.4501 34.3676C52.1121 36.7288 46.272 38.2832 39.4065 38.6354C31.973 39.0169 23.9575 37.9643 16.8362 35.6719C16.5711 35.5862 16.2943 35.5423 16.0157 35.5418V35.5418Z" fill="#34248F"/>
<path d="M22.0962 36.274C21.7694 36.2743 21.444 36.2303 21.1289 36.1434C17.6363 35.3056 9.33654 32.7624 7.41402 27.2057C6.39795 24.2691 7.31347 20.9725 10.1351 17.4075C10.1457 17.394 10.1568 17.3811 10.1684 17.3686C11.1954 16.2633 12.5187 15.8341 13.3865 16.3246C13.9955 16.6689 14.5896 17.5373 13.9613 19.7193C13.4689 21.4292 13.3518 22.7428 14.2877 24.006C15.2526 25.3084 17.3182 26.5068 20.5775 27.6498C21.5404 26.8825 22.638 26.6647 23.8459 27.0026C24.3304 27.1426 24.782 27.3785 25.1736 27.6964C25.5652 28.0143 25.8889 28.4077 26.1255 28.8532C26.7382 29.9682 26.8599 31.3696 26.4591 32.6979C25.8139 34.8366 23.9787 36.2739 22.0962 36.274ZM11.135 18.2328C8.6189 21.4198 7.77901 24.2962 8.63907 26.7819C9.34992 28.8366 11.2072 30.6701 14.1594 32.2316C16.8935 33.6778 19.8959 34.5151 21.4422 34.8854C21.4501 34.8873 21.458 34.8894 21.4658 34.8916C22.9798 35.3153 24.663 34.1632 25.2181 32.3236C25.5189 31.3266 25.4355 30.2892 24.9895 29.4775C24.837 29.1824 24.6259 28.9214 24.3692 28.7106C24.1126 28.4997 23.8156 28.3433 23.4966 28.251C23.1004 28.1287 22.679 28.1136 22.2752 28.2072C22.3189 28.2206 22.3628 28.2341 22.4069 28.2476C22.571 28.298 22.7085 28.4115 22.789 28.5632C22.8695 28.7149 22.8866 28.8923 22.8364 29.0566C22.7862 29.2208 22.6729 29.3584 22.5213 29.4392C22.3697 29.5199 22.1923 29.5372 22.028 29.4873C17.3603 28.0609 14.5697 26.5643 13.2461 24.7777C11.9232 22.9921 12.2094 21.1189 12.7156 19.3606C13.0929 18.0503 12.9022 17.5399 12.7486 17.4531C12.5074 17.3167 11.7798 17.5483 11.135 18.2328Z" fill="#34248F"/>
<path d="M19.7881 35.7603C19.7735 35.7603 19.759 35.7602 19.7444 35.76C19.5727 35.7573 19.4091 35.6866 19.2895 35.5634C19.1699 35.4402 19.1041 35.2746 19.1065 35.1029C19.1089 34.9312 19.1793 34.7675 19.3023 34.6477C19.4253 34.5279 19.5907 34.4617 19.7624 34.4638C19.7706 34.4639 19.7787 34.464 19.7869 34.464C20.508 34.464 21.2877 34.0222 21.8776 33.2779C22.5126 32.4766 22.7909 31.513 22.6039 30.763C22.5623 30.5962 22.5887 30.4197 22.6772 30.2724C22.7657 30.125 22.9092 30.0189 23.076 29.9773C23.2427 29.9357 23.4192 29.962 23.5666 30.0506C23.7139 30.1391 23.8201 30.2825 23.8617 30.4493C24.1439 31.5811 23.7729 32.9734 22.8935 34.083C22.0472 35.1509 20.9176 35.7602 19.7881 35.7603Z" fill="#34248F"/>
<path d="M13.7952 54.038C12.9877 54.0222 12.1841 53.922 11.3974 53.7391C10.8482 53.6313 10.3379 53.3781 9.91973 53.0061C9.50155 52.6341 9.19073 52.1568 9.01966 51.6239C8.14414 49.0717 9.64014 45.0522 12.9239 41.1337C13.0343 41.002 13.1926 40.9195 13.3638 40.9044C13.535 40.8893 13.7052 40.9428 13.837 41.0532C13.9688 41.1636 14.0513 41.3219 14.0663 41.4931C14.0814 41.6643 14.0279 41.8346 13.9175 41.9663C11.5016 44.8491 9.42936 48.8233 10.2458 51.2032C10.3438 51.5252 10.5286 51.8139 10.7799 52.0377C11.0313 52.2615 11.3394 52.4118 11.6706 52.4719C15.1549 53.2232 15.9556 52.2843 16.3019 51.1581C16.4209 50.7712 16.5364 50.1862 16.6702 49.5087C17.1907 46.8736 17.9035 43.2647 20.3167 42.9586C20.4013 42.9477 20.4871 42.9535 20.5694 42.9758C20.6517 42.9981 20.7288 43.0364 20.7962 43.0886C20.8637 43.1407 20.9202 43.2056 20.9625 43.2796C21.0048 43.3536 21.0321 43.4353 21.0429 43.5198C21.0536 43.6044 21.0475 43.6903 21.025 43.7725C21.0025 43.8547 20.964 43.9317 20.9117 43.999C20.8594 44.0664 20.7943 44.1227 20.7202 44.1648C20.6461 44.207 20.5644 44.2341 20.4798 44.2446C18.9941 44.433 18.3355 47.7676 17.942 49.7599C17.8012 50.4726 17.6796 51.0882 17.5409 51.5391C16.9372 53.5022 15.4023 54.038 13.7952 54.038Z" fill="#34248F"/>
<path d="M55.1361 34.4442C55.0116 34.4442 54.8897 34.4084 54.785 34.341C54.6803 34.2736 54.5972 34.1774 54.5457 34.0641C51.1646 26.6268 44.9984 24.2554 40.4209 23.5756C34.6722 22.7219 26.3532 24.2674 23.1318 27.9289C23.0756 27.9928 23.0073 28.045 22.9309 28.0825C22.8545 28.12 22.7715 28.1422 22.6866 28.1476C22.6016 28.153 22.5164 28.1417 22.4359 28.1142C22.3553 28.0867 22.281 28.0436 22.2171 27.9874C22.1532 27.9311 22.101 27.8629 22.0634 27.7865C22.0259 27.7101 22.0038 27.627 21.9984 27.5421C21.993 27.4571 22.0043 27.372 22.0318 27.2914C22.0593 27.2109 22.1024 27.1365 22.1586 27.0726C24.9726 23.8742 32.8277 21.1375 40.6113 22.2934C43.8452 22.7736 46.7331 23.8759 49.1949 25.5697C52.0077 27.505 54.205 30.1825 55.7257 33.5276C55.7706 33.6263 55.7899 33.7347 55.7821 33.8428C55.7742 33.9509 55.7393 34.0554 55.6807 34.1466C55.622 34.2377 55.5414 34.3127 55.4463 34.3647C55.3512 34.4167 55.2445 34.444 55.1361 34.4442V34.4442Z" fill="#34248F"/>
<path d="M55.0995 34.3638C54.9585 34.3639 54.8214 34.3181 54.7089 34.2333C54.5963 34.1485 54.5145 34.0293 54.4757 33.8938C54.4369 33.7584 54.4434 33.6139 54.494 33.4824C54.5447 33.351 54.6368 33.2395 54.7565 33.1651C58.4885 30.844 60.1094 28.5603 60.8119 27.0532C60.8478 26.9759 60.8985 26.9064 60.9613 26.8487C61.024 26.791 61.0975 26.7463 61.1775 26.7171C61.2576 26.6878 61.3426 26.6747 61.4278 26.6783C61.5129 26.682 61.5965 26.7024 61.6737 26.7384C61.751 26.7744 61.8204 26.8253 61.8779 26.8882C61.9355 26.951 61.9801 27.0246 62.0092 27.1047C62.0382 27.1848 62.0512 27.2699 62.0474 27.355C62.0436 27.4401 62.023 27.5237 61.9869 27.6009C61.2099 29.2674 59.4437 31.7764 55.4412 34.2659C55.3387 34.3299 55.2203 34.3638 55.0995 34.3638Z" fill="#34248F"/>
<path d="M50.5288 28.0853C50.3688 28.0851 50.2145 28.0257 50.0957 27.9186C49.9768 27.8115 49.9017 27.6642 49.8849 27.5051C49.8681 27.346 49.9108 27.1863 50.0047 27.0567C50.0985 26.9271 50.237 26.8369 50.3935 26.8033C54.3417 25.9558 56.8116 23.3087 57.3891 22.1596C57.6063 21.7277 57.604 20.8511 57.6019 20.0035C57.5982 18.5423 57.5941 16.8862 58.7651 16.2757C59.3695 15.9605 60.0453 16.0076 60.668 16.4085C62.1897 17.3882 63.0552 20.2095 62.8729 23.5963C62.8634 23.7678 62.7863 23.9286 62.6584 24.0433C62.5305 24.1579 62.3623 24.2172 62.1908 24.2079C62.0193 24.1987 61.8584 24.1217 61.7436 23.994C61.6288 23.8662 61.5693 23.6981 61.5784 23.5266C61.7568 20.2128 60.8677 18.0788 59.9662 17.4985C59.6684 17.3067 59.48 17.3647 59.3645 17.4251C58.8924 17.6712 58.8956 18.9626 58.8983 20.0002C58.9009 21.0459 58.9033 22.0336 58.5473 22.7417C57.7551 24.318 54.9148 27.1586 50.6655 28.0707C50.6206 28.0804 50.5748 28.0853 50.5288 28.0853V28.0853Z" fill="#34248F"/>
<path d="M61.1797 50.604C61.0444 50.6047 60.9094 50.5911 60.777 50.5633C60.6391 50.5332 60.5147 50.4589 60.4229 50.3516C60.3311 50.2444 60.2767 50.1101 60.2682 49.9692C59.9581 44.8541 56.5074 40.7518 56.4725 40.7109C56.3611 40.5801 56.3062 40.4104 56.3199 40.2391C56.3336 40.0678 56.4148 39.909 56.5455 39.7975C56.6763 39.6861 56.8459 39.6311 57.0172 39.6447C57.1885 39.6582 57.3474 39.7392 57.459 39.8699C57.6066 40.0431 60.9499 44.0188 61.5083 49.2487C61.7047 49.1654 61.9075 48.9782 62.033 48.5841C62.1946 48.0766 62.1304 46.3917 61.4793 44.3865C61.0466 43.054 60.0125 40.5902 57.9472 39.0599C57.8094 38.9575 57.7179 38.8045 57.6928 38.6346C57.6676 38.4648 57.7109 38.2919 57.8131 38.1539C57.9154 38.0159 58.0682 37.9242 58.238 37.8987C58.4078 37.8733 58.5808 37.9163 58.7189 38.0183C60.9561 39.676 62.1254 42.1786 62.7123 43.9862C63.3501 45.9503 63.5786 48.0028 63.2681 48.9775C62.8561 50.271 61.8735 50.604 61.1797 50.604Z" fill="#34248F"/>
<path d="M20.9092 41.6323C20.7916 41.6324 20.6761 41.6005 20.5753 41.54C20.4744 41.4795 20.3919 41.3926 20.3366 41.2888L19.0533 38.8799C18.9727 38.7282 18.9556 38.5508 19.0058 38.3865C19.056 38.2222 19.1693 38.0846 19.3209 38.0039C19.4725 37.9231 19.6499 37.9058 19.8143 37.9558C19.9786 38.0057 20.1163 38.1189 20.1973 38.2704L21.4807 40.6793C21.5332 40.778 21.5593 40.8887 21.5565 41.0005C21.5536 41.1123 21.5219 41.2215 21.4644 41.3174C21.4069 41.4133 21.3255 41.4927 21.2282 41.5479C21.1309 41.6031 21.021 41.6322 20.9092 41.6323L20.9092 41.6323Z" fill="#34248F"/>
<path d="M18.8221 41.1032C18.6796 41.1034 18.541 41.0565 18.4278 40.9699C18.3146 40.8834 18.2331 40.7619 18.1958 40.6243C18.1586 40.4868 18.1678 40.3408 18.2219 40.2089C18.276 40.0771 18.372 39.9667 18.4952 39.895L21.1246 38.3628C21.1981 38.3199 21.2794 38.2919 21.3638 38.2804C21.4482 38.2689 21.534 38.2741 21.6164 38.2958C21.6987 38.3174 21.776 38.3551 21.8438 38.4067C21.9116 38.4583 21.9685 38.5227 22.0114 38.5963C22.0543 38.6698 22.0823 38.7512 22.0937 38.8356C22.1051 38.92 22.0998 39.0058 22.0781 39.0881C22.0563 39.1705 22.0186 39.2477 21.9669 39.3155C21.9153 39.3832 21.8509 39.4401 21.7772 39.4829L19.1478 41.015C19.049 41.0728 18.9366 41.1032 18.8221 41.1032V41.1032Z" fill="#34248F"/>
<path d="M32.1994 42.7921C32.1068 42.7923 32.0152 42.7725 31.9309 42.7341C31.8466 42.6958 31.7714 42.6398 31.7106 42.5699L29.9703 40.5737C29.8575 40.4441 29.8008 40.2751 29.8126 40.1036C29.8244 39.9322 29.9037 39.7725 30.0333 39.6596C30.1628 39.5467 30.3318 39.4898 30.5032 39.5015C30.6747 39.5132 30.8344 39.5924 30.9474 39.7219L32.6877 41.718C32.7695 41.8118 32.8225 41.9271 32.8405 42.0502C32.8585 42.1733 32.8407 42.299 32.7892 42.4122C32.7377 42.5255 32.6548 42.6215 32.5502 42.6889C32.4456 42.7562 32.3238 42.7921 32.1994 42.7921Z" fill="#34248F"/>
<path d="M30.1182 42.6979C29.9855 42.6979 29.856 42.6573 29.7471 42.5814C29.6383 42.5055 29.5554 42.398 29.5096 42.2734C29.4638 42.1489 29.4573 42.0133 29.491 41.885C29.5248 41.7566 29.5971 41.6417 29.6982 41.5558L31.8995 39.6853C31.9644 39.6301 32.0394 39.5882 32.1205 39.5621C32.2015 39.5359 32.2869 39.526 32.3718 39.5329C32.4567 39.5397 32.5394 39.5633 32.6152 39.6021C32.691 39.6409 32.7583 39.6943 32.8135 39.7592C32.8686 39.8241 32.9104 39.8992 32.9365 39.9803C32.9626 40.0614 32.9725 40.1468 32.9656 40.2316C32.9586 40.3165 32.9351 40.3992 32.8962 40.4749C32.8573 40.5507 32.8038 40.6181 32.7389 40.6731L30.5376 42.5437C30.4206 42.6433 30.2719 42.698 30.1182 42.6979V42.6979Z" fill="#34248F"/>
<path d="M44.215 42.3471C44.1048 42.347 43.9965 42.3188 43.9003 42.2652C43.804 42.2116 43.723 42.1343 43.6649 42.0407C43.6068 41.9471 43.5735 41.8403 43.5681 41.7302C43.5628 41.6202 43.5856 41.5106 43.6343 41.4118L44.7955 39.0613C44.8717 38.9072 45.0059 38.7896 45.1687 38.7344C45.3316 38.6793 45.5096 38.6911 45.6638 38.7672C45.8179 38.8434 45.9355 38.9776 45.9906 39.1405C46.0458 39.3033 46.034 39.4813 45.9578 39.6355L44.7966 41.986C44.743 42.0944 44.6602 42.1857 44.5574 42.2496C44.4546 42.3134 44.336 42.3472 44.215 42.3471Z" fill="#34248F"/>
<path d="M46.2019 41.9151C46.0855 41.9151 45.9713 41.8837 45.8713 41.824L43.4516 40.3857C43.3784 40.3423 43.3144 40.2848 43.2634 40.2166C43.2124 40.1484 43.1753 40.0708 43.1543 39.9883C43.1333 39.9058 43.1288 39.8199 43.1409 39.7357C43.1531 39.6514 43.1818 39.5703 43.2253 39.4971C43.2688 39.4239 43.3263 39.36 43.3946 39.3091C43.4628 39.2581 43.5404 39.2211 43.6229 39.2001C43.7054 39.1792 43.7913 39.1747 43.8756 39.1869C43.9599 39.1991 44.0409 39.2279 44.1141 39.2714L46.5338 40.7097C46.6558 40.7823 46.7507 40.893 46.8038 41.0248C46.8568 41.1565 46.8651 41.302 46.8274 41.439C46.7897 41.5759 46.7081 41.6967 46.5951 41.7827C46.4821 41.8687 46.3439 41.9152 46.2019 41.9151V41.9151Z" fill="#34248F"/>
<path d="M53.8444 39.5769C53.7342 39.5767 53.6259 39.5485 53.5297 39.4949C53.4334 39.4413 53.3524 39.3641 53.2943 39.2705C53.2362 39.1769 53.2029 39.07 53.1975 38.9599C53.1922 38.8499 53.215 38.7403 53.2637 38.6415L54.3061 36.5315C54.3438 36.4552 54.3962 36.387 54.4602 36.331C54.5243 36.2749 54.5987 36.232 54.6793 36.2047C54.76 36.1774 54.8452 36.1662 54.9301 36.1718C55.0151 36.1775 55.098 36.1998 55.1744 36.2375C55.2507 36.2752 55.3188 36.3275 55.3749 36.3916C55.431 36.4556 55.4739 36.53 55.5012 36.6107C55.5285 36.6913 55.5397 36.7765 55.5341 36.8614C55.5284 36.9464 55.5061 37.0294 55.4684 37.1057L54.426 39.2157C54.3724 39.3242 54.2896 39.4155 54.1868 39.4793C54.084 39.5431 53.9654 39.5769 53.8444 39.5769V39.5769Z" fill="#34248F"/>
<path d="M55.6283 39.189C55.512 39.1891 55.3977 39.1576 55.2978 39.0979L53.1257 37.8068C53.0524 37.7633 52.9884 37.7058 52.9374 37.6377C52.8863 37.5695 52.8492 37.4919 52.8282 37.4093C52.8072 37.3268 52.8026 37.2409 52.8148 37.1566C52.8269 37.0723 52.8556 36.9912 52.8991 36.918C52.9426 36.8448 53.0002 36.7809 53.0684 36.7299C53.1367 36.6789 53.2143 36.6419 53.2969 36.621C53.3794 36.6 53.4653 36.5956 53.5496 36.6078C53.6339 36.6201 53.7149 36.6489 53.7881 36.6925L55.9602 37.9837C56.0823 38.0563 56.1771 38.1669 56.2302 38.2987C56.2833 38.4304 56.2916 38.576 56.2539 38.7129C56.2162 38.8498 56.1345 38.9706 56.0215 39.0566C55.9085 39.1426 55.7704 39.1892 55.6283 39.189V39.189Z" fill="#34248F"/>
<path d="M111.918 31.7703C116.986 37.6629 119.077 47.8324 116.987 58.8518C114.283 68.0157 110.154 68.4509 109.083 73.8074C107.984 79.2981 109.71 83.4546 112.127 86.8009C113.01 88.6326 114.238 90.277 115.743 91.6444C110.792 89.9555 106.244 84.1713 106.575 77.1259C106.729 75.7639 106.886 74.6917 106.897 74.6157C106.898 74.6142 106.898 74.6127 106.898 74.6111C107.203 73.1835 107.683 71.7992 108.328 70.4898C108.666 69.7973 109.043 69.1243 109.457 68.4741C112.292 63.9923 114.31 59.0436 115.418 53.8574C116.458 48.9991 116.485 44.9194 116.183 42.5713C116.18 42.5518 116.178 42.5333 116.175 42.5139C115.583 38.0435 109.833 32.0537 106.285 30.1287C101.804 27.6963 94.2594 25.9648 86.6464 28.5527C79.0529 31.1352 82.8668 28.6444 80.5732 29.2898L80.5982 29.2342C84.4732 23.7972 101.947 20.1805 111.918 31.7703Z" fill="#FFA3AC"/>
<path d="M116.175 42.5138C116.178 42.5333 116.18 42.5518 116.182 42.5712L116.129 42.5777C115.502 37.8971 108.656 34.4286 101.915 33.8083C93.3963 33.0231 84.1167 29.9564 81.0055 31.8823C79.9722 32.5221 79.5981 33.1944 79.5611 33.8083C79.4417 32.1999 80.0491 30.4573 80.5731 29.2897C82.8667 28.6444 79.0528 31.1351 86.6463 28.5527C94.2593 25.9647 101.804 27.6962 106.285 30.1286C109.832 32.0536 115.582 38.0434 116.175 42.5138Z" fill="#9886E2"/>
<path d="M112.629 40.8908C102.74 41.8565 89.1609 36.2658 84.1239 35.025C80.0517 34.0213 80.7008 35.588 81.0989 36.225C81.023 36.1824 80.9591 36.1463 80.9091 36.1167C80.5054 35.6861 80.3267 35.3852 80.1674 35.425C79.8452 35.0204 79.5211 34.4463 79.5609 33.8084C79.598 33.1945 79.9721 32.5223 81.0054 31.8824C84.1165 29.9565 93.3961 33.0232 101.915 33.8084C108.655 34.4287 115.502 37.8973 116.129 42.5778C116.294 43.813 116.027 45.1315 115.21 46.5047V46.5038C115.639 43.0445 114.467 41.1806 112.629 40.8908Z" fill="#85FFFF"/>
<path d="M115.744 91.6445C117.381 93.1463 118.784 93.8463 118.784 93.8463C118.784 93.8463 116.891 97.9713 112.234 96.8945C111.784 96.7932 111.354 96.6183 110.961 96.3769C110.04 95.5973 109.331 94.4963 108.777 93.2528C108.085 91.0825 108.222 88.8639 107.805 89.3C107.727 89.3809 107.656 89.4676 107.592 89.5593C106.899 86.5538 106.718 83.6602 106.441 82.8232C106.129 81.8797 106.346 79.175 106.575 77.126C106.244 84.1713 110.792 89.9556 115.743 91.6445H115.744Z" fill="#85FFFF"/>
<path d="M115.413 53.8564L115.417 53.8574C114.31 59.0435 112.291 63.9923 109.456 68.474C109.043 69.1243 108.666 69.7972 108.328 70.4898C101.695 81.1259 104.686 87.2898 107.345 94.7639C107.348 94.7731 107.35 94.7787 107.35 94.7787C102.429 91.0694 101.903 84.4824 102.382 79.0361C102.868 73.5074 104.684 72.4185 105.768 68.0379C106.467 66.4407 106.617 64.024 106.612 62.1963L108.311 61.9342C111.679 61.5759 114.48 58.2676 115.413 53.8564Z" fill="#F6E46E"/>
<path d="M116.987 58.8521C116.188 63.0115 114.871 67.0545 113.067 70.8863C109.783 77.8937 110.379 83.1196 112.127 86.8011C109.71 83.4548 107.984 79.2983 109.083 73.8076C110.154 68.4511 114.283 68.0159 116.987 58.8521Z" fill="#8BE9F2"/>
<path d="M112.63 40.8907C113.105 41.582 113.532 42.305 113.909 43.0546C99.399 46.0972 83.5805 37.6259 81.099 36.225C80.7008 35.588 80.0518 34.0213 84.124 35.025C89.161 36.2657 102.74 41.8565 112.63 40.8907Z" fill="#F6E46E"/>
<path d="M106.441 82.8231C106.718 83.6601 106.899 86.5536 107.592 89.5592C106.418 91.2222 107.278 94.5129 107.345 94.7638C104.686 87.2897 101.695 81.1259 108.328 70.4897C107.683 71.7991 107.202 73.1835 106.898 74.611C106.898 74.6126 106.898 74.6142 106.897 74.6157C106.723 75.4424 106.615 76.2818 106.575 77.1259C106.346 79.1749 106.129 81.8796 106.441 82.8231Z" fill="#A0A2F4"/>
<path d="M105.768 68.038C104.684 72.4186 102.868 73.5075 102.382 79.0362C101.903 84.4825 102.429 91.0695 107.35 94.7788C96.3711 94.4195 99.4248 76.6917 100.672 69.6019C101.551 68.5945 101.806 66.7676 101.879 65.9436C101.879 65.9372 101.882 65.9312 101.887 65.9269C101.892 65.9226 101.898 65.9203 101.904 65.9204C101.911 65.9205 101.917 65.9231 101.922 65.9275C101.926 65.932 101.929 65.9381 101.929 65.9445C102.118 69.0871 102.507 69.8575 103.891 69.7176C104.759 69.6306 105.359 68.976 105.768 68.038Z" fill="#50C5FF"/>
<path d="M77.753 64.875C80.0613 70.4796 82.4474 73.4574 81.0289 80.1917C79.7345 86.3343 81.8113 91.3037 81.8113 91.3037C81.8113 91.3037 81.0724 94.1889 79.041 92.7546C77.5234 91.6824 76.5456 87.9759 76.1475 86.1713C76.4669 83.3074 79.553 79.5815 79.041 72.7102C78.7808 69.2083 78.2447 66.6241 77.753 64.875Z" fill="#50C5FF"/>
<path d="M80.7637 36.0322C80.7637 36.0322 82.3081 38.8915 80.034 43.2026C78.16 46.7572 75.1053 51.5878 75.8683 58.223C72.9377 47.0211 75.2525 47.9211 77.8664 41.3368C79.6183 36.9257 79.8525 35.5044 80.1674 35.4248C80.3436 35.6482 80.5435 35.8519 80.7637 36.0322V36.0322Z" fill="#F6E46E"/>
<path d="M77.577 26.5787C78.9104 20.9454 82.7437 24.85 80.5557 29.2945C80.5615 29.2925 80.5674 29.291 80.5733 29.2898C80.0493 30.4574 79.4419 32.2 79.5613 33.8084L79.5548 33.8019C79.4932 33.7287 79.4273 33.6591 79.3576 33.5936L79.3557 33.5917C78.7169 32.876 76.8446 30.4343 77.4835 27.013C77.4845 27.0074 77.4854 27.0028 77.4863 26.9972C77.5132 26.8602 77.5419 26.7278 77.5724 26.6C77.5734 26.5928 77.575 26.5857 77.577 26.5787V26.5787Z" fill="#53DB70"/>
<path d="M79.5545 33.8019L79.5609 33.8084C79.5211 34.4464 79.8452 35.0205 80.1674 35.4251C79.8526 35.5047 79.6183 36.926 77.8665 41.3371C75.2526 47.9214 72.9378 47.0214 75.8683 58.2232C75.8691 58.225 75.8694 58.2269 75.8693 58.2288C76.0519 59.76 76.4063 61.2657 76.9258 62.7177C77.1952 63.4825 77.473 64.1982 77.7526 64.8751C78.2443 66.6241 78.7804 69.2084 79.0406 72.7102C79.5526 79.5815 76.4665 83.3075 76.147 86.1714C76.0128 85.5612 75.9452 85.1686 75.9452 85.1686C74.248 90.2676 78.9137 96.7204 79.0378 96.8908C67.3545 83.2751 78.6508 80.238 75.5045 71.0686C72.3572 61.8973 71.8332 54.2177 71.8869 46.5056C71.9396 38.7927 77.0998 32.7427 77.0998 32.7427C77.873 32.7834 78.722 32.9936 79.3554 33.5918L79.3572 33.5936C79.4619 33.7112 79.5341 33.7816 79.5545 33.8019Z" fill="#FFACC3"/>
<path d="M73.3946 97.7186C72.1798 96.9538 71.4057 95.6612 71.0502 94.9084C71.0867 95.0794 71.1093 95.2532 71.1178 95.4279C71.0835 95.364 71.052 95.2992 71.0196 95.2325C70.8955 94.5843 70.6437 93.9075 70.3215 93.164C69.2187 88.3714 70.3863 81.0631 72.7252 76.0066C75.3909 70.2427 72.6381 68.4742 69.6928 62.0205C64.9779 44.9584 70.889 32.539 77.0909 32.7427C77.094 32.7422 77.0971 32.7422 77.1002 32.7427C77.1002 32.7427 71.94 38.7927 71.8872 46.5057C71.8335 54.2177 72.3576 61.8973 75.5048 71.0686C78.6511 80.2381 67.3548 83.2751 79.0381 96.8908C79.0389 96.8921 79.0399 96.8934 79.0409 96.8945C76.6066 98.764 74.7335 98.5621 73.3946 97.7186ZM71.0492 94.9066C71.0224 94.7801 70.9846 94.6561 70.9363 94.5362C70.7548 94.0945 70.79 94.3556 71.0492 94.9066Z" fill="#85FFFF"/>
<path d="M77.4834 27.0132C76.8445 30.4345 78.7168 32.8761 79.3556 33.5919C78.7223 32.9937 77.8732 32.7836 77.1001 32.7428C77.097 32.7423 77.0939 32.7423 77.0908 32.7428C76.419 32.7135 75.7466 32.7841 75.0955 32.9521C75.3751 32.8308 75.6584 32.7163 75.9455 32.6086C71.7825 32.4845 71.2871 29.1798 77.1881 29.5224C77.2282 28.6802 77.3269 27.8417 77.4834 27.0132V27.0132Z" fill="#50C5FF"/>
<path d="M77.0906 32.7428C70.8887 32.5391 64.9776 44.9585 69.6924 62.0206C69.8971 62.7632 70.1224 63.5144 70.3684 64.2743C73.823 74.9271 65.9369 76.4465 67.0461 83.6002C67.7415 88.0826 69.3498 90.9252 70.3211 93.1641C70.4783 93.8769 70.7124 94.5704 71.0193 95.2326C71.07 95.4862 71.0988 95.7436 71.1054 96.0021C71.0846 96.2325 71.043 96.4606 70.9813 96.6835C70.4721 96.2243 67.2091 93.14 65.5508 88.0854C63.7489 82.5919 64.7517 78.1761 67.0258 70.9493C69.2035 64.0289 65.8461 58.7428 65.048 54.7946C63.4646 43.152 67.9841 36.0233 75.0869 32.9548L75.0952 32.952C75.7463 32.784 76.4188 32.7135 77.0906 32.7428V32.7428Z" fill="#9886E2"/>
<path d="M69.6927 62.0205C72.6381 68.4742 75.3909 70.2427 72.7251 76.0066C70.3862 81.0631 69.2186 88.3714 70.3214 93.164C69.3501 90.9251 67.7418 88.0826 67.0464 83.6001C65.9372 76.4464 73.8233 74.927 70.3686 64.2742C70.1224 63.515 69.897 62.7637 69.6927 62.0205Z" fill="#F6E46E"/>
<path d="M71.1177 95.4278C71.1279 95.6192 71.1239 95.8111 71.1056 96.0019C71.099 95.7434 71.0702 95.486 71.0195 95.2324C71.0519 95.2991 71.0834 95.3639 71.1177 95.4278Z" fill="#FF99CF"/>
<path d="M70.9816 96.6833C70.9816 96.6833 70.9825 96.6843 70.9816 96.6843C70.5649 98.2028 69.2149 99.3222 66.8196 96.8944C55.1992 78.9194 70.1501 73.1648 66.8196 62.5268C65.952 59.7574 65.3714 57.1805 65.0483 54.7944C65.8464 58.7426 69.2038 64.0287 67.026 70.9491C64.752 78.1759 63.7492 82.5917 65.551 88.0852C67.2094 93.1398 70.4723 96.2241 70.9816 96.6833Z" fill="#FFA3AC"/>
<path d="M70.3213 93.1641C70.6435 93.9076 70.8954 94.5844 71.0194 95.2326C70.7125 94.5704 70.4784 93.8768 70.3213 93.1641V93.1641Z" fill="#5CDBFF"/>
<path d="M78.8437 70.6313C79.7567 72.6258 80.3752 74.7369 79.8539 76.4119C78.9122 79.4342 77.815 83.5851 79.0409 88.462C79.9909 92.236 80.4585 92.9472 79.8558 93.1305C79.5606 93.0643 79.2828 92.9362 79.0409 92.7546C77.5234 91.6823 76.5456 87.9758 76.1475 86.1712C76.4669 83.3073 79.553 79.5814 79.0409 72.7101C78.9863 71.9776 78.9206 71.2847 78.8437 70.6313Z" fill="#57D7FC"/>
<path d="M77.0908 32.7427C77.0939 32.7422 77.097 32.7422 77.1001 32.7427C77.1001 32.7427 75.4353 34.6945 73.9871 37.7945C72.4251 38.5362 70.5316 39.7927 69.0288 41.8121C70.6195 36.0501 73.8149 32.6353 77.0908 32.7427Z" fill="#898EE8"/>
<path d="M111.918 31.7702C116.986 37.6628 119.077 47.8323 116.987 58.8517C114.332 67.8499 110.303 68.4323 109.144 73.5212C110.285 68.2489 114.211 64.0434 115.279 60.7101C116.003 58.4462 116.466 52.8906 116.244 48.1943C116.422 45.8647 116.357 43.9286 116.182 42.5712C116.18 42.5517 116.178 42.5332 116.175 42.5138C115.791 39.6147 113.237 36.0767 110.522 33.423C110.361 33.0715 110.164 32.7371 109.936 32.4249C108.753 30.8739 106.176 27.2563 104.349 26.1313C107.26 27.4242 109.846 29.3506 111.918 31.7702V31.7702Z" fill="#FFFFCC"/>
<path d="M118.784 93.8463C118.325 94.7408 117.658 95.5123 116.84 96.0963C112.912 96.8945 112.612 91.4547 110.883 89.601C110.338 89.0177 109.935 88.1538 109.638 87.0371C111.304 89.2473 113.482 90.8732 115.743 91.6445H115.744C117.381 93.1463 118.784 93.8463 118.784 93.8463Z" fill="#FFFFCC"/>
<path d="M116.245 48.1943C116.466 52.8906 116.003 58.4462 115.279 60.7101C114.211 64.0434 110.285 68.249 109.144 73.5212C109.141 73.5323 109.139 73.5425 109.136 73.5536C109.118 73.6369 109.1 73.7212 109.083 73.8073C108.732 75.4939 108.655 77.2259 108.855 78.9369C108.917 82.323 109.114 85.0721 109.638 87.0369C107.49 84.1927 106.407 80.686 106.575 77.1258C106.729 75.7638 106.886 74.6916 106.897 74.6156C106.898 74.6141 106.898 74.6126 106.898 74.611C107.317 72.6156 108.139 70.5508 109.457 68.474C111.118 65.8528 112.5 63.0648 113.581 60.1554C114.093 59.261 114.508 58.1379 114.714 56.6888C114.988 55.7212 115.221 54.7749 115.418 53.8573C115.82 51.9903 116.096 50.0984 116.245 48.1943V48.1943Z" fill="#F896BE"/>
<path d="M110.883 89.601C112.612 91.4547 112.912 96.8945 116.84 96.0964C115.787 96.838 114.277 97.3667 112.234 96.8945C111.784 96.7932 111.354 96.6184 110.961 96.3769C110.04 95.5973 109.331 94.4964 108.777 93.2528C108.085 91.0825 108.222 88.864 107.805 89.3001C107.727 89.3809 107.656 89.4676 107.592 89.5593C106.899 86.5538 106.718 83.6602 106.441 82.8232C106.129 81.8797 106.346 79.1751 106.575 77.126C106.407 80.6861 107.49 84.1929 109.638 87.0371C109.935 88.1538 110.338 89.0177 110.883 89.601Z" fill="#8BE9F2"/>
<path d="M112.127 86.8009C113.01 88.6326 114.237 90.277 115.742 91.6444C113.481 90.8731 111.304 89.2472 109.638 87.037C109.114 85.0722 108.917 82.3231 108.854 78.937C109.229 82.0148 110.527 84.5861 112.127 86.8009Z" fill="#FFFFCC"/>
<path d="M114.797 55.9595C114.775 56.2113 114.747 56.4545 114.714 56.6891C114.395 57.8187 114.019 58.978 113.58 60.1558C111.864 63.1613 109.062 63.6011 109.456 65.2326C109.988 67.4289 107.566 69.2067 106.446 72.4752C105.489 75.2706 103.87 76.8354 102.311 79.9817C102.33 79.6632 102.355 79.3474 102.382 79.0363C102.868 73.5076 104.684 72.4187 105.768 68.0382C106.468 66.441 106.617 64.0243 106.612 62.1965L108.311 61.9345C111.118 61.6363 113.531 59.2882 114.797 55.9595Z" fill="#F9DA95"/>
<path d="M116.987 58.8521C116.188 63.0115 114.871 67.0545 113.067 70.8863C109.782 77.8937 110.379 83.1196 112.127 86.8011C110.527 84.5863 109.23 82.015 108.855 78.9372C108.84 78.1308 108.831 77.2891 108.83 76.4122C108.829 75.4512 108.932 74.493 109.136 73.5539C109.139 73.5428 109.141 73.5326 109.143 73.5215C110.303 68.4326 114.331 67.8502 116.987 58.8521Z" fill="#FFFFCC"/>
<path d="M110.522 33.4229C111.012 34.4396 111.453 35.7803 112.01 37.0979C109.297 35.3313 105.591 34.1461 101.915 33.8081C96.1222 33.2739 89.9777 31.685 85.6602 31.3294C86.0481 30.9544 85.9731 30.5053 85.8842 29.8516C85.7472 28.8516 90.7639 27.5859 92.4027 28.1433C94.0407 28.7007 98.4463 31.6989 102.919 30.4785C103.943 30.1998 104.44 29.7868 104.617 29.3202C105.21 29.5766 105.768 29.8479 106.285 30.1285C107.532 30.8044 109.051 31.9841 110.522 33.4229Z" fill="#A0A2F4"/>
<path d="M109.936 32.425C110.165 32.7373 110.361 33.0717 110.522 33.4231C109.051 31.9843 107.533 30.8046 106.285 30.1287C105.769 29.8481 105.21 29.5768 104.617 29.3204C105.216 27.7491 102.208 25.5667 103.581 25.8074H103.583C103.839 25.9102 104.095 26.0182 104.349 26.1315C106.176 27.2565 108.753 30.8741 109.936 32.425Z" fill="#F896BE"/>
<path d="M109.082 73.8074C109.1 73.7213 109.117 73.637 109.136 73.5537C108.932 74.4928 108.829 75.451 108.829 76.412C108.832 77.2889 108.84 78.1306 108.854 78.937C108.655 77.226 108.732 75.494 109.082 73.8074V73.8074Z" fill="#FFFFCC"/>
<path d="M107.35 94.7787C107.038 94.7685 106.736 94.7444 106.446 94.7064V94.7055C102.023 91.7944 99.751 86.1305 101.527 81.7296C101.784 81.0926 102.046 80.5139 102.311 79.9814C101.978 85.2268 102.71 91.2814 107.35 94.7787Z" fill="#64F5BA"/>
<path d="M106.446 94.7056V94.7065C96.5435 93.4185 99.4602 76.4898 100.672 69.6019C101.551 68.5945 101.806 66.7676 101.879 65.9436C101.879 65.9372 101.882 65.9312 101.887 65.9269C101.892 65.9226 101.898 65.9203 101.905 65.9204C101.911 65.9205 101.917 65.9231 101.922 65.9275C101.926 65.932 101.929 65.9381 101.93 65.9445C102.119 69.0871 102.507 69.8574 103.891 69.7176C104.759 69.6306 105.359 68.976 105.769 68.038C104.684 72.4186 102.869 73.5074 102.382 79.0361C102.356 79.3472 102.331 79.663 102.311 79.9815C102.046 80.5139 101.784 81.0926 101.527 81.7297C99.7509 86.1306 102.023 91.7945 106.446 94.7056Z" fill="#51EDAD"/>
<path d="M103.581 25.8075C102.208 25.5668 105.216 27.7492 104.617 29.3205C100.062 27.3548 93.3816 26.2631 86.6464 28.5529C79.0529 31.1353 82.8668 28.6446 80.5732 29.2899L80.5982 29.2344C83.5269 25.1251 94.226 22.0548 103.581 25.8075Z" fill="#EA7DAE"/>
<path d="M104.617 29.3204C104.44 29.787 103.944 30.2 102.919 30.4787C98.4463 31.6991 94.0408 28.7009 92.4028 28.1435C90.7639 27.5861 85.7472 28.8519 85.8843 29.8519C85.9732 30.5056 86.0482 30.9546 85.6602 31.3296C83.6278 31.1611 82.0009 31.2658 81.0056 31.8824C79.9722 32.5222 79.5981 33.1945 79.5611 33.8084C79.4417 32.2 80.0491 30.4574 80.5731 29.2898C82.8667 28.6445 79.0528 31.1352 86.6463 28.5528C93.3815 26.263 100.062 27.3546 104.617 29.3204Z" fill="#898EE8"/>
<path d="M90.6877 40.5305C90.6127 40.5046 90.5377 40.4777 90.4637 40.4499L80.9581 35.9731C80.6137 35.2611 80.5211 34.137 84.1238 35.0249C84.4035 35.0935 84.709 35.1759 85.0387 35.2694C85.4668 35.8447 85.9236 36.3982 86.4072 36.9277C87.6577 38.3237 89.0987 39.5366 90.6877 40.5305V40.5305Z" fill="#F9DA95"/>
<path d="M85.66 31.3294C85.4563 31.5276 85.122 31.7053 84.5943 31.8822C83.4211 32.2748 83.7822 33.5581 85.0387 35.2692C84.7091 35.1757 84.4035 35.0933 84.1239 35.0248C80.5211 34.1368 80.6137 35.2609 80.9582 35.9729L80.6507 35.8285C80.4193 35.56 80.2878 35.3942 80.1674 35.4248C80.1276 35.3757 80.0887 35.3239 80.0498 35.2702C80.0489 35.2692 80.048 35.2683 80.048 35.2674C79.7743 34.8352 79.6068 34.3443 79.5591 33.835C79.5592 33.826 79.5599 33.817 79.5609 33.8081C79.598 33.1942 79.972 32.522 81.0054 31.8822C82.0008 31.2655 83.6276 31.1609 85.66 31.3294Z" fill="#57D7FC"/>
<path d="M81.2351 37.8296C81.3684 39.0888 81.224 40.9472 80.0341 43.2027C78.1601 46.7583 75.1036 51.5907 75.8693 58.2287C75.2934 56.0305 74.9202 54.2981 74.7119 52.8833C75.1675 49.6463 75.948 46.5527 77.6091 44.474C79.3786 42.2592 80.8203 39.6277 81.2351 37.8296Z" fill="#FFFFCC"/>
<path d="M77.7529 64.875C80.0613 70.4796 82.4474 73.4574 81.0289 80.1917C79.7344 86.3343 81.8113 91.3037 81.8113 91.3037C81.8113 91.3037 81.2742 93.4019 79.8557 93.1306C80.4585 92.9472 79.9909 92.2361 79.0409 88.462C77.815 83.5852 78.9122 79.4343 79.8539 76.412C80.3752 74.737 79.7566 72.6259 78.8437 70.6315C78.6327 68.6869 78.268 66.762 77.7529 64.875V64.875Z" fill="#FFFFCC"/>
<path d="M80.6508 35.8287L80.4295 35.7241C80.3372 35.6288 80.2498 35.529 80.1675 35.425C80.2879 35.3944 80.4193 35.5602 80.6508 35.8287Z" fill="#7AE0E5"/>
<path d="M78.4409 24.477C80.0474 22.3001 82.3687 25.6122 80.5557 29.2946C80.5557 29.2946 80.077 25.6686 78.4409 24.477Z" fill="#64F5BA"/>
<path d="M80.0498 35.2702C80.085 35.3239 80.122 35.3758 80.1619 35.4267C79.8498 35.5211 79.6072 36.9526 77.8665 41.3369C75.7646 46.6304 73.8572 47.0869 74.7119 52.8832C74.5156 54.2776 74.3795 55.698 74.2591 57.0758C73.8591 61.6545 74.9906 63.7165 76.5072 66.3304C77.1832 67.4961 78.1082 69.0257 78.8433 70.6313C78.9193 71.2841 78.985 71.977 79.0406 72.71C79.5526 79.5813 76.4665 83.3072 76.147 86.1711C76.0128 85.5609 75.9452 85.1683 75.9452 85.1683C74.248 90.2674 78.9137 96.7202 79.0378 96.8906C67.3545 83.2748 78.6507 80.2378 75.5045 71.0683C72.3572 61.897 71.8332 54.2174 71.8869 46.5054C71.9091 43.173 72.8859 40.1517 73.9869 37.7943C74.4074 37.5933 74.8383 37.4147 75.2776 37.2591C77.5304 36.4628 79.0665 34.5739 79.172 33.4341C79.236 33.4832 79.2972 33.5357 79.3554 33.5915L79.3572 33.5933C79.4619 33.7109 79.5341 33.7813 79.5545 33.8017L79.5554 33.8026L79.5563 33.8035C79.5563 33.8137 79.5582 33.8248 79.5591 33.835C79.5332 34.3832 79.7748 34.8832 80.048 35.2674C80.048 35.2683 80.0489 35.2693 80.0498 35.2702Z" fill="#F896BE"/>
<path d="M77.5768 26.5789C77.8055 25.6132 78.1074 24.9271 78.4398 24.4771H78.4407C80.0768 25.6687 80.5555 29.2947 80.5555 29.2947C80.5555 29.2947 79.3342 31.7299 79.5555 33.803L79.5546 33.8021C79.4929 33.7289 79.4271 33.6593 79.3574 33.5937L79.3555 33.5919C79.3037 33.5336 79.2426 33.4632 79.1759 33.3826C79.199 32.9576 79.012 32.6447 78.5768 32.5474C77.8398 31.3724 77.0296 29.4391 77.4833 27.0132C77.4842 27.0085 77.4852 27.003 77.4861 26.9974C77.5129 26.8604 77.5416 26.728 77.5722 26.6002C77.5733 26.593 77.5748 26.5859 77.5768 26.5789Z" fill="#51EDAD"/>
<path d="M78.5767 32.5474C79.0119 32.6446 79.1989 32.9575 79.1757 33.3825C78.959 33.1168 78.7589 32.8379 78.5767 32.5474V32.5474Z" fill="#51EDAD"/>
<path d="M79.176 33.3826C79.1751 33.4002 79.1742 33.4169 79.1723 33.4345C78.564 32.9558 77.801 32.7799 77.1001 32.7428C77.097 32.7424 77.0939 32.7424 77.0909 32.7428C76.419 32.7135 75.7466 32.7841 75.0955 32.9521C75.3751 32.8308 75.6584 32.7163 75.9455 32.6086C71.7825 32.4845 71.2871 29.1799 77.1881 29.5225C73.8205 29.7502 75.9455 32.6086 78.1807 32.5178C78.3135 32.5106 78.4467 32.5206 78.577 32.5475C78.7592 32.838 78.9593 33.1169 79.176 33.3826V33.3826Z" fill="#7AE0E5"/>
<path d="M71.0491 94.9064C71.0223 94.7799 70.9845 94.656 70.9362 94.5361C70.7547 94.0944 70.7899 94.3555 71.0491 94.9064ZM71.0501 94.9083C71.0866 95.0793 71.1092 95.2531 71.1177 95.4277C71.0834 95.3639 71.0519 95.299 71.0195 95.2324C70.8954 94.5842 70.6436 93.9074 70.3214 93.1638C69.2186 88.3713 70.3862 81.0629 72.7251 76.0065C75.3908 70.2426 72.638 68.474 69.6927 62.0203C67.4686 53.9722 67.6093 46.9565 69.0288 41.812C70.5315 39.7926 72.4251 38.5361 73.9871 37.7944C72.8862 40.1518 71.9093 43.1731 71.8871 46.5055C71.8334 54.2176 72.3575 61.8972 75.5047 71.0685C78.651 80.2379 67.3547 83.275 79.038 96.8907C79.0388 96.892 79.0398 96.8933 79.0408 96.8944C76.6065 98.7638 74.7334 98.562 73.3945 97.7185C72.1797 96.9537 71.4056 95.6611 71.0501 94.9083Z" fill="#85FFFF"/>
<path d="M78.5767 32.5474C78.4464 32.5206 78.3132 32.5106 78.1804 32.5178C75.9452 32.6086 73.8202 29.7502 77.1878 29.5224C77.228 28.6802 77.3267 27.8417 77.4832 27.0132C77.0295 29.4391 77.8397 31.3724 78.5767 32.5474Z" fill="#7AE0E5"/>
<path d="M77.7529 64.875C78.2679 66.762 78.6326 68.6868 78.8436 70.6315C78.1084 69.0259 77.1834 67.4963 76.5075 66.3305C74.9908 63.7166 73.8593 61.6546 74.2593 57.0759C74.3797 55.6981 74.5158 54.2777 74.7121 52.8833C74.9204 54.2981 75.2936 56.0305 75.8695 58.2287C76.0522 59.7599 76.4066 61.2656 76.926 62.7176C77.1954 63.4824 77.4732 64.1981 77.7529 64.875Z" fill="#FFFFCC"/>
<path d="M77.0998 32.7427C77.8007 32.7797 78.5637 32.9556 79.172 33.4343C79.0664 34.5742 77.5303 36.463 75.2776 37.2593C74.8382 37.415 74.4074 37.5936 73.9868 37.7945C75.435 34.6945 77.0998 32.7427 77.0998 32.7427Z" fill="#EA7DAE"/>
<path d="M77.0906 32.7428C73.8147 32.6354 70.6193 36.0502 69.0285 41.8122C67.0804 44.4289 65.7887 48.3298 66.7295 54.0594C68.6119 65.527 73.6313 67.8474 68.8859 72.9122C64.1406 77.977 64.272 88.8668 68.3156 92.1492C69.8146 93.3659 70.5517 94.2205 70.8267 94.9298C71.0471 95.4992 70.9702 95.9742 70.7498 96.4678C69.8341 95.5863 67.0433 92.6335 65.5508 88.0853C63.7489 82.5918 64.7517 78.1761 67.0258 70.9492C69.2035 64.0307 65.848 58.7455 65.048 54.7974C65.0478 54.7972 65.0476 54.797 65.0475 54.7968C65.0473 54.7965 65.0473 54.7963 65.0473 54.796C65.0473 54.7957 65.0473 54.7955 65.0475 54.7952C65.0476 54.795 65.0478 54.7948 65.048 54.7946C63.4646 43.152 67.9841 36.0233 75.0869 32.9548L75.0952 32.952C75.7463 32.784 76.4188 32.7135 77.0906 32.7428V32.7428Z" fill="#898EE8"/>
<path d="M70.8752 94.9093L70.827 94.9296C70.552 94.2204 69.815 93.3657 68.3159 92.1491C64.2724 88.8667 64.1409 77.9768 68.8863 72.912C73.6317 67.8472 68.6122 65.5268 66.7298 54.0592C65.7891 48.3296 67.0807 44.4287 69.0289 41.812C67.6094 46.9565 67.4687 53.9722 69.6928 62.0204C69.8974 62.7629 70.1227 63.5142 70.3687 64.2741C73.8233 74.9268 65.9372 76.4463 67.0465 83.6C67.7419 88.0824 69.3502 90.925 70.3215 93.1639C70.4551 93.7606 70.6403 94.3446 70.8752 94.9093V94.9093Z" fill="#A0A2F4"/>
<path d="M70.7501 96.4677C70.5149 96.9927 70.1177 97.539 69.7445 98.2399C69.0473 98.4658 68.0779 98.1695 66.8195 96.8946C55.1992 78.9196 70.1501 73.1649 66.8195 62.527C65.9529 59.7585 65.3723 57.1825 65.0482 54.7974C65.8482 58.7455 69.2038 64.0307 67.026 70.9492C64.7519 78.176 63.7492 82.5918 65.551 88.0853C67.0436 92.6334 69.8344 95.5862 70.7501 96.4677Z" fill="#64F5BA"/>
<path d="M103.601 70.3823C103.149 70.3992 102.705 70.2509 102.354 69.9651C102.088 69.7269 101.885 69.4259 101.764 69.0895C101.606 69.4279 101.403 69.7435 101.161 70.028C101.048 70.1573 100.888 70.2365 100.717 70.2481C100.545 70.2597 100.376 70.2027 100.247 70.0898C100.118 69.9769 100.038 69.8172 100.026 69.6458C100.015 69.4745 100.071 69.3054 100.184 69.1758C100.714 68.5689 101.106 67.3394 101.233 65.8869C101.248 65.7193 101.325 65.5634 101.449 65.4497C101.573 65.3361 101.735 65.2727 101.904 65.2722H101.912C102.082 65.275 102.245 65.3418 102.368 65.4592C102.491 65.5767 102.566 65.7361 102.576 65.9059C102.651 67.1551 102.789 68.6333 103.195 68.9781C103.24 69.017 103.361 69.12 103.826 69.0733C106.003 68.8545 106.137 62.6775 105.861 59.7204C105.845 59.5495 105.898 59.3793 106.008 59.2472C106.118 59.1152 106.275 59.032 106.446 59.016C106.617 59 106.787 59.0524 106.92 59.1618C107.052 59.2712 107.135 59.4287 107.152 59.5995C107.29 61.2673 107.295 62.9434 107.166 64.6119C106.853 68.2455 105.772 70.1804 103.955 70.3631C103.838 70.3754 103.719 70.3818 103.601 70.3823ZM102.524 65.9989L102.524 66.0009L102.524 65.9989Z" fill="#34248F"/>
<path d="M113.734 97.7219C113.179 97.7195 112.627 97.654 112.088 97.5265C108.82 96.7707 108.002 93.4177 107.67 91.2644C107.517 92.4882 107.792 93.9493 107.974 94.604C108.002 94.7021 108.006 94.8052 107.986 94.905C107.966 95.0048 107.923 95.0986 107.86 95.1787C107.797 95.2588 107.716 95.3229 107.624 95.366C107.532 95.409 107.431 95.4298 107.329 95.4265C104.829 95.3449 102.832 94.4063 101.396 92.6369C99.467 90.2615 98.554 86.3462 98.6823 80.9998C98.7884 76.5718 99.5682 72.1385 100.034 69.4895C100.064 69.3202 100.16 69.1697 100.301 69.071C100.441 68.9724 100.616 68.9337 100.785 68.9635C100.954 68.9933 101.105 69.0891 101.203 69.2299C101.302 69.3706 101.341 69.5448 101.311 69.7142C100.413 74.8206 98.3091 86.7789 102.402 91.8197C103.444 93.1033 104.8 93.8422 106.528 94.0644C106.444 93.6087 106.386 93.1487 106.353 92.6865C106.235 90.9464 106.566 89.6562 107.336 88.8519C107.432 88.7435 107.557 88.665 107.697 88.626C107.836 88.5869 107.984 88.5889 108.122 88.6317C108.64 88.8003 108.708 89.307 108.844 90.3165C109.094 92.1667 109.558 95.6108 112.38 96.2635C115.536 96.9931 117.253 95.062 117.897 94.0898C115.737 92.7541 113.9 90.9574 112.516 88.8283C111.076 86.6003 110.24 84.0364 110.09 81.388C109.887 78.0531 110.691 74.4272 112.48 70.6108C115.148 64.9187 116.736 58.7918 117.073 52.8926C117.391 47.3379 116.61 42.1241 114.815 37.8149C114.782 37.7363 114.765 37.652 114.765 37.5669C114.765 37.4818 114.781 37.3975 114.814 37.3188C114.846 37.2401 114.894 37.1685 114.954 37.1082C115.014 37.0479 115.085 37 115.164 36.9673C115.242 36.9346 115.326 36.9177 115.412 36.9175C115.497 36.9173 115.581 36.9339 115.66 36.9663C115.738 36.9987 115.81 37.0463 115.87 37.1064C115.931 37.1665 115.978 37.2378 116.011 37.3164C117.881 41.8055 118.696 47.2173 118.367 52.9666C118.021 59.0292 116.391 65.3207 113.654 71.1609C111.965 74.7643 111.2 78.1662 111.382 81.272C111.512 83.6926 112.268 86.038 113.575 88.0795C115.829 91.6094 119.041 93.2511 119.074 93.2673C119.224 93.3427 119.339 93.4734 119.395 93.6319C119.45 93.7904 119.442 93.9644 119.372 94.1172C118.956 94.9404 118.378 95.6719 117.674 96.2686C116.579 97.2127 115.18 97.7289 113.734 97.7219V97.7219Z" fill="#34248F"/>
<path d="M75.4788 98.9857C74.5672 98.9815 73.6779 98.7034 72.9264 98.1875C72.4206 97.8415 71.9675 97.4244 71.581 96.9488C71.3602 97.689 70.966 98.2719 70.4487 98.6135C69.6631 99.1326 68.3158 99.3342 66.3582 97.3499C66.3271 97.3183 66.2993 97.2837 66.2753 97.2465C59.0005 85.9932 61.8895 79.3593 64.4385 73.5065C66.043 69.8224 67.4286 66.6407 66.2011 62.7205C63.6728 54.6462 63.3999 47.7827 65.39 42.3206C66.9267 38.103 69.8039 34.8647 73.7724 32.8549C73.0877 32.5835 72.5815 32.1854 72.3204 31.6894C72.1921 31.4555 72.1301 31.1911 72.1409 30.9246C72.1518 30.6581 72.2352 30.3996 72.3822 30.177C72.9599 29.2799 74.4419 28.8171 76.5846 28.8506C76.8463 25.6704 77.6994 23.6834 79.0104 23.228C79.6943 22.9906 80.4265 23.2153 80.9692 23.8294C81.5655 24.504 81.9638 25.6732 81.8517 27.0739C84.4537 25.1007 88.6411 23.7354 93.1531 23.4991C96.6184 23.3176 100.086 23.8227 103.184 24.9594C106.758 26.2575 109.936 28.4581 112.409 31.3474C112.865 31.8793 113.293 32.4351 113.69 33.0125C113.788 33.1541 113.825 33.3285 113.794 33.4975C113.762 33.6665 113.665 33.8161 113.524 33.9136C113.382 34.0111 113.208 34.0484 113.039 34.0174C112.87 33.9863 112.72 33.8894 112.623 33.748C112.252 33.2087 111.852 32.6895 111.426 32.1928C109.097 29.4715 106.104 27.3989 102.737 26.1763C99.8026 25.0994 96.5118 24.6213 93.221 24.7936C87.8696 25.0738 82.8807 27.0761 81.0889 29.6629C80.9958 29.7974 80.8552 29.8917 80.6955 29.9269C80.5357 29.962 80.3685 29.9355 80.2275 29.8526C80.0865 29.7696 79.9821 29.6364 79.9352 29.4797C79.8883 29.323 79.9023 29.1543 79.9746 29.0076C80.8672 27.1946 80.6528 25.4288 79.9979 24.6879C79.8047 24.4693 79.6159 24.3901 79.4357 24.4526C78.9365 24.626 78.0377 25.8963 77.8354 29.5575C77.8307 29.6426 77.8093 29.726 77.7723 29.8028C77.7353 29.8796 77.6836 29.9484 77.62 30.0052C77.5564 30.062 77.4822 30.1057 77.4017 30.1337C77.3212 30.1618 77.2359 30.1737 77.1508 30.1688C74.6991 30.0268 73.6849 30.5482 73.4721 30.8788C73.4491 30.9082 73.4363 30.9442 73.4354 30.9815C73.4346 31.0188 73.4459 31.0553 73.4675 31.0857C73.6396 31.4125 74.4466 31.9152 75.9647 31.9604C76.1147 31.9648 76.2586 32.0212 76.3717 32.12C76.4848 32.2187 76.5601 32.3537 76.5847 32.5018C76.6094 32.6499 76.5819 32.8019 76.5069 32.932C76.4319 33.062 76.3141 33.162 76.1735 33.2149C71.5597 34.9501 68.252 38.2523 66.608 42.7644C64.7175 47.9529 64.9968 54.5368 67.4381 62.3331C68.8102 66.7148 67.264 70.2652 65.627 74.024C64.3843 76.8776 63.0992 79.8284 62.9774 83.3981C62.8393 87.4467 64.2624 91.7285 67.3273 96.4861C67.942 97.0998 69.0278 97.9985 69.7344 97.5318C70.2464 97.1937 70.6208 96.0442 70.4409 95.1351C70.4125 95.0737 70.3879 95.0181 70.3667 94.969C70.1802 94.5359 70.1423 94.3514 70.1977 94.1462C70.2334 94.0149 70.3092 93.8981 70.4145 93.8119C70.5198 93.7258 70.6494 93.6747 70.7852 93.6658C71.2675 93.6372 71.4422 94.0616 71.5359 94.2904C71.5897 94.4233 71.6334 94.56 71.6666 94.6995C72.0646 95.5183 73.0108 97.0276 74.476 97.5243C75.5748 97.8968 76.8075 97.6325 78.1472 96.739C77.011 95.0177 73.7991 89.5629 75.3304 84.9639C75.376 84.8269 75.4661 84.7091 75.5863 84.6291C75.7065 84.5491 75.8499 84.5116 75.9939 84.5224C76.1378 84.5332 76.2741 84.5917 76.381 84.6887C76.4879 84.7858 76.5593 84.9157 76.584 85.0579C76.8681 86.696 77.9305 91.1766 79.415 92.2249C79.7666 92.473 80.0605 92.5568 80.2883 92.4738C80.6767 92.3322 80.984 91.7288 81.1257 91.3284C80.7282 90.264 79.2142 85.6609 80.3944 80.0579C81.5032 74.7937 80.2197 71.9691 78.4434 68.0597C77.7729 66.584 77.013 64.9114 76.3153 62.9326C74.9736 59.1274 74.7442 55.4849 75.6138 51.7972C76.353 48.6627 77.7741 46.0322 78.9159 43.9186C79.1053 43.568 79.2885 43.2289 79.4616 42.9006C81.528 38.9824 80.2473 36.4427 80.1918 36.3365C80.1261 36.2116 80.1029 36.0686 80.1258 35.9293C80.1487 35.79 80.2163 35.6619 80.3185 35.5646C80.4207 35.4672 80.5519 35.4058 80.6921 35.3897C80.8324 35.3736 80.9741 35.4036 81.0957 35.4753C81.1387 35.5009 85.4683 38.0596 91.6507 40.1816C101.931 43.7102 109.357 43.3464 113.777 42.4199C113.86 42.4024 113.946 42.4015 114.029 42.4172C114.113 42.4329 114.193 42.465 114.264 42.5115C114.335 42.5581 114.397 42.6182 114.445 42.6885C114.493 42.7588 114.527 42.8379 114.544 42.9212C114.562 43.0045 114.562 43.0905 114.547 43.1741C114.531 43.2578 114.499 43.3375 114.452 43.4088C114.406 43.4801 114.346 43.5415 114.275 43.5895C114.205 43.6375 114.126 43.6712 114.043 43.6886C110.368 44.459 106.31 44.5628 101.982 43.9969C98.5346 43.5462 94.9077 42.6719 91.2021 41.3981C87.9801 40.2926 84.8469 38.9436 81.8295 37.3628C82.0485 38.7283 81.9978 40.8705 80.6082 43.5054C80.4332 43.8373 80.2479 44.1802 80.0564 44.5347C77.7956 48.7196 74.6994 54.4511 77.5378 62.5017C78.2166 64.4269 78.9641 66.072 79.6236 67.5234C81.4314 71.5021 82.8593 74.6447 81.6628 80.325C80.429 86.1829 82.39 91.0062 82.41 91.0542C82.464 91.1842 82.4743 91.3281 82.4395 91.4645C82.3932 91.6451 81.9519 93.243 80.7375 93.6898C80.2892 93.8548 79.566 93.9183 78.6673 93.2839C77.7198 92.6147 76.9839 91.1463 76.4447 89.643C77.1878 93.2345 79.5306 96.4661 79.5636 96.511C79.6639 96.6477 79.7068 96.8182 79.6829 96.986C79.659 97.1538 79.5703 97.3056 79.4359 97.4088C77.9152 98.5763 76.5896 98.9856 75.4788 98.9857Z" fill="#34248F"/>
<path d="M106.611 62.8447C106.447 62.8445 106.29 62.7827 106.171 62.6716C106.051 62.5606 105.978 62.4085 105.965 62.2457C105.953 62.083 106.002 61.9215 106.104 61.7936C106.205 61.6658 106.351 61.5809 106.513 61.5559L108.212 61.2933C108.222 61.2918 108.232 61.2904 108.242 61.2893C110.617 61.037 112.782 59.106 114.033 56.124C114.977 53.8759 115.305 51.1979 114.958 48.5833C114.562 45.6065 113.304 42.7105 111.321 40.2084C111.268 40.1417 111.229 40.0653 111.206 39.9834C111.182 39.9016 111.175 39.8159 111.185 39.7314C111.195 39.6468 111.221 39.565 111.263 39.4907C111.304 39.4163 111.36 39.3508 111.426 39.2979C111.493 39.2451 111.569 39.2058 111.651 39.1825C111.733 39.1592 111.819 39.1522 111.903 39.162C111.988 39.1718 112.07 39.1981 112.144 39.2395C112.218 39.2809 112.284 39.3365 112.337 39.4032C114.465 42.0885 115.816 45.2039 116.242 48.4125C116.625 51.2929 116.275 54.1329 115.229 56.6256C113.794 60.0438 111.24 62.2672 108.395 62.5767L106.711 62.837C106.678 62.8421 106.644 62.8447 106.611 62.8447V62.8447Z" fill="#34248F"/>
</g>
<defs>
<clipPath id="clip0_1158_58549">
<rect width="139" height="104" fill="white"/>
</clipPath>
</defs>
</svg>
