<svg width="115" height="104" viewBox="0 0 115 104" fill="none" xmlns="http://www.w3.org/2000/svg">
<path d="M86.0055 43.8251C87.6141 36.7702 70.1589 37.912 71.3226 44.2682C61.0206 41.1156 57.8547 55.8729 69.0637 53.9473C76.2169 60.4909 80.9743 54.5437 81.1796 54.1177C88.4013 59.2129 91.0367 53.1123 91.0367 53.1123C95.6743 52.7374 95.4861 43.1946 86.0055 43.8251Z" fill="white"/>
<path d="M41.129 66.0562C45.6779 52.5003 66.5537 57.06 64.562 72.218C81.1593 66.9928 90.9948 75.4714 88.6588 81.6085C85.8557 88.978 65.6439 89.5202 61.2179 87.2527C53.325 91.6892 43.4158 90.3336 40.3422 86.1682C11.5489 95.5834 11.9669 59.6233 41.129 66.0562Z" fill="white"/>
<path d="M19.2321 24.9696C16.9745 14.7792 41.5164 16.4284 39.89 25.6096C54.382 21.0805 58.8243 42.372 43.07 39.5905C33.0202 49.0425 26.3203 40.452 26.0533 39.8367C15.9064 47.1964 12.1924 38.3844 12.1924 38.3844C5.63817 37.8429 5.90519 24.0589 19.2321 24.9696Z" fill="white"/>
</svg>
